<svg id="Layer_1" data-name="Layer 1" xmlns="http://www.w3.org/2000/svg" xmlns:xlink="http://www.w3.org/1999/xlink" viewBox="0 0 1200 420"><defs><style>.cls-1{fill:none;}.cls-2{fill:#fff;}.cls-3{clip-path:url(#clip-path);}.cls-4{fill:#004478;}.cls-5{fill:#bf1834;}.cls-6,.cls-7{fill:#595757;}.cls-7{font-size:48px;font-family:Roboto-MediumItalic, Roboto;font-weight:500;font-style:italic;letter-spacing:0.09em;}.cls-8{letter-spacing:0.1em;}.cls-9{letter-spacing:0.09em;}.cls-10{letter-spacing:0.11em;}.cls-11{letter-spacing:0.1em;}.cls-12{letter-spacing:0.09em;}.cls-13{letter-spacing:0.13em;}.cls-14{letter-spacing:0.07em;}.cls-15{letter-spacing:0.06em;}</style><clipPath id="clip-path"><rect class="cls-1" x="120" y="64" width="960" height="216.22"/></clipPath></defs><rect class="cls-2" width="1200" height="420" rx="10"/><g id="happyjapanlogo"><g class="cls-3"><g class="cls-3"><path class="cls-4" d="M682.45,249.21c-14.49,0-23.35-4-26.57-11.67s-3.63-18.12-.41-31.41l.41-2.82h23l-.81,2.82c-1.61,8.46-2,14.9-1.21,18.12.81,3.62,3.63,5.24,8.86,5.24s8.86-2,11.28-5.64c1.61-2.42,2.81-6,4-11.28l16.11-74.08h24.16l-16.11,73.68q-3,14.49-9.66,23c-7.25,9.26-18.52,14.09-33,14.09"/><path class="cls-4" d="M808.88,279l25.37-116.36H856l-2.41,11.67a37.51,37.51,0,0,1,8.85-7.65A34.8,34.8,0,0,1,881.36,161q15.09,0,22.95,10.87c5.23,7.24,6.44,18.12,3.22,31.81-3.22,14.49-8.86,25.76-17.31,33.41s-18.12,11.68-28.59,11.68q-10.27,0-15.71-4.83c-2-1.61-3.62-4-5.23-7.25l-9.26,42.68H808.88Zm61.61-98.65c-7.65,0-14.1,3.63-18.52,10.87a46,46,0,0,0-5.64,14.9c-2,9.67-.81,16.11,3.22,20.13,2.42,2.42,6,3.22,10.07,3.22a20.17,20.17,0,0,0,15.3-6.84c4-4.43,7.24-10.87,8.85-18.52C885,197.68,885,192,883,187.21c-2-4.43-6-6.85-12.48-6.85"/><path class="cls-4" d="M1043.62,246.4l10.87-50.74c.81-4.43,1.21-7.65.41-10.06-1.21-4-4.43-6-10.47-6-7.25,0-12.89,3.22-16.91,9.26a44.71,44.71,0,0,0-4.83,12.48L1013,246.4H990.47l18.12-83.35h21.75l-2.42,11.27c3.62-4,6.44-6.84,9.26-8.45a34.53,34.53,0,0,1,18.52-5.24c8.46,0,15.3,2.42,19.73,6.85s5.64,12.08,3.63,22.55L1067,246.4Z"/><path class="cls-4" d="M979.2,238.75c0-1.21.4-2.82.4-4.84v-.4c.41-1.61.41-2.82.81-4.43l9.26-42.28c2.42-10.06,0-17.31-6.44-20.93s-14.1-5.64-23.36-5.64q-21.14,0-32.61,10.87c-4.83,4.83-8,10.87-10.07,18.12v.4h21.75v-.4a20.58,20.58,0,0,1,4.83-7.65c2.82-2.42,6.44-3.62,11.67-3.62,4.43,0,8.06.8,10.07,2s2.82,3.22,2,6.84q-.6,4.23-6,6c-2,.81-4.83,1.21-8.85,2l-7.65.8c-8.86,1.21-15.71,2.82-20.54,5.24A30.86,30.86,0,0,0,907.53,223c-1.61,8.06-.4,14.1,3.62,18.52S921.22,248,928.87,248a34.92,34.92,0,0,0,16.91-4,72.63,72.63,0,0,0,11.68-7.65,3,3,0,0,1-.41,2v6.85h23v-.4c-1.21-.41-1.21-2.82-.81-6m-17.72-25c-1.61,7.25-4.83,12.08-9.26,14.9a25.89,25.89,0,0,1-14.09,4,9.46,9.46,0,0,1-6.84-2.42c-1.62-1.61-2-4-1.21-7.65a12,12,0,0,1,6.84-8.86c2.42-1.21,5.64-2,10.47-2.82l5.24-.8c2.41-.4,4.83-.81,6-1.61a19.16,19.16,0,0,0,4-2Z"/><path class="cls-4" d="M804.86,238.75c0-1.21.4-2.82.4-4.84v-.4c.4-1.61.4-2.82.8-4.43l9.26-42.28c2.42-10.06,0-17.31-6.44-20.93s-14.09-5.64-23.35-5.64q-21.13,0-32.62,10.87c-4.83,4.83-8,10.87-10.06,18.12v.4h21.74v-.4a20.83,20.83,0,0,1,4.83-7.65c2.82-2.42,6.44-3.62,11.68-3.62,4.43,0,8,.8,10.06,2s2.82,3.22,2,6.84q-.6,4.23-6,6c-2,.81-4.83,1.21-8.86,2l-7.65.8c-8.86,1.21-15.7,2.82-20.53,5.24A30.89,30.89,0,0,0,733.18,223c-1.61,8.06-.4,14.1,3.63,18.52S746.87,248,754.52,248a35,35,0,0,0,16.92-4,72.55,72.55,0,0,0,11.67-7.65,3,3,0,0,1-.4,2v6.85h22.95v-.4c-1.21-.41-1.21-2.82-.8-6m-17.72-25c-1.61,7.25-4.83,12.08-9.26,14.9a25.9,25.9,0,0,1-14.1,4,9.48,9.48,0,0,1-6.84-2.42c-1.61-1.61-2-4-1.21-7.65a12,12,0,0,1,6.85-8.86c2.41-1.21,6-2,10.47-2.82l5.23-.8c2.42-.4,4.83-.81,6-1.61a19,19,0,0,0,4-2Z"/><path class="cls-5" d="M382.08,279l25.36-116.36h21.75l-2.42,11.67a37.54,37.54,0,0,1,8.86-7.65A34.79,34.79,0,0,1,454.55,161c9.67,0,17.72,3.62,22.95,10.87S484,190,481.13,203.72c-3.22,14.49-8.86,25.76-17.32,33.41s-18.11,11.68-28.58,11.68q-10.28,0-15.71-4.83c-2-1.61-3.62-4-5.23-7.25L405,279.41H382.08Zm61.6-98.65c-8.05,0-14.09,3.63-18.52,10.87a46.27,46.27,0,0,0-5.64,14.9c-2,9.67-.8,16.11,3.23,20.13,2.41,2.42,6,3.22,10.06,3.22a20.16,20.16,0,0,0,15.3-6.84c4-4.43,7.25-10.87,8.86-18.52,1.21-6.44,1.21-12.08-.81-16.91-2-4.43-6-6.85-12.48-6.85"/><path class="cls-5" d="M473.48,279l25.37-116.36h21.74l-2.42,11.67a37.54,37.54,0,0,1,8.86-7.65A34.79,34.79,0,0,1,546,161c9.67,0,17.72,3.62,22.95,10.87s6.45,18.12,3.63,31.81c-3.22,14.49-8.86,25.76-17.32,33.41s-17.71,11.68-28.58,11.68q-10.27,0-15.71-4.83c-2-1.61-3.62-4-5.23-7.25l-9.26,42.68H473.48Zm61.6-98.65c-8.05,0-14.09,3.63-18.92,10.87a46,46,0,0,0-5.64,14.9c-2,9.67-.8,16.11,3.22,20.13,2.42,2.42,6,3.22,10.07,3.22a20.16,20.16,0,0,0,15.3-6.84c4-4.43,7.25-10.87,8.86-18.52,1.21-6.44,1.21-12.08-.81-16.91-1.61-4.43-5.64-6.85-12.08-6.85"/><path class="cls-5" d="M640.17,162.65,610,223l-4.83-60.39h-25l12.08,87c0,.4-.4,1.21-2.42,4.83a15.25,15.25,0,0,1-4.43,5.23,11.36,11.36,0,0,1-5.23,1.61c-1.61,0-2.82.41-4.43.41h-4.83l-4,18.12h.4c2.42,0,4,.4,5.24.4h4.83c9.66,0,16.51-2,20.94-5.64,4-3.62,10.47-13.69,19.73-29.39l46.7-82.14H640.17Z"/><path class="cls-5" d="M377.65,238.75c0-1.21.4-2.82.4-4.84v-.4c.4-1.61.4-2.82.81-4.43l9.26-42.28c2-10.06,0-17.31-6.44-20.93s-14.1-5.64-23.36-5.64c-14.09,0-24.16,3.62-31.4,10.87-4.84,4.83-8.06,10.87-10.07,18.12v.4h21.74v-.4a20.83,20.83,0,0,1,4.83-7.65c2.82-2.42,5.64-3.62,10.88-3.62,4.43,0,7.64.8,9.66,2s2.82,3.22,2,6.84q-.6,4.23-6,6c-2,.81-4.83,1.21-8.86,2l-7.65.8c-8.85,1.21-16.91,2.82-21.74,5.24A30.86,30.86,0,0,0,304.77,223c-1.61,8.06-.4,14.1,3.62,18.52S318.46,248,326.11,248a42.68,42.68,0,0,0,18.52-4,72.63,72.63,0,0,0,11.68-7.65v2.42a5.11,5.11,0,0,1-.4,2.41v4h22.95v-.4c-1.21-.41-1.21-2.82-1.21-6m-17.31-25c-1.61,7.25-4.84,12.08-9.27,14.9a29.59,29.59,0,0,1-14.89,4,9.48,9.48,0,0,1-6.85-2.42c-1.61-1.61-2-4-1.21-7.65a12,12,0,0,1,6.85-8.86c2.41-1.21,7.25-2,12.08-2.82l4.83-.8c2.42-.4,4.83-.81,6-1.61a18.7,18.7,0,0,0,4-2Z"/><path class="cls-5" d="M317.25,112.72c-5.64-6.85-13.29-10.47-22.95-10.47H186c-20.13,0-40.26,16.51-44.69,36.64l-20.54,94.62c-2,10.07,0,19.33,5.64,26.17s13.69,10.47,23.35,10.47H258.06c20.13,0,40.27-16.51,44.7-36.64l20.53-94.62a31.56,31.56,0,0,0-6-26.17M271.75,246.8h-25l10.87-49.12H214.58L203.71,246.8h-25L202.5,137.28h25L219,176.74h43.08l8.45-39.46h25Z"/><polygon class="cls-6" points="466.63 100.24 461.4 100.24 461.4 99.83 468.24 68.43 456.17 68.43 456.97 64 486.36 64 485.15 68.43 473.08 68.43 466.63 100.24"/><path class="cls-6" d="M493.21,101a23.88,23.88,0,0,1-5.64-.8A13.94,13.94,0,0,1,484,97.82a10.62,10.62,0,0,1-2-3.62,11.26,11.26,0,0,1-.4-3.63,18.69,18.69,0,0,1,1.21-6.84c.81-2,1.61-4,2.82-5.24A12.66,12.66,0,0,1,490,74.87a11.08,11.08,0,0,1,5.23-1.21c4,0,6.85,1.21,8.46,3.22a13.31,13.31,0,0,1,2.82,8.46V89H487.17v2c0,.81,0,2,.4,2.42a7,7,0,0,0,1.61,2,8.48,8.48,0,0,0,2,1.21,5.17,5.17,0,0,0,2.42.4,7.28,7.28,0,0,0,4.43-1.2,8.85,8.85,0,0,0,2.82-3.63h4.83v.41a12.1,12.1,0,0,1-1.61,4,9.36,9.36,0,0,1-2.82,2.82,14.17,14.17,0,0,1-3.62,1.61c-1.61-.4-2.82,0-4.43,0m-5.64-16.51h14.5V82.12a5.79,5.79,0,0,0-.81-2.42,4,4,0,0,0-2-1.61,6,6,0,0,0-2.82-.4,7.87,7.87,0,0,0-3.22.4,7.38,7.38,0,0,0-4,4,3.68,3.68,0,0,0-1.61,2.41"/><path class="cls-6" d="M525.42,101c-3.62,0-6.44-.8-8-2.82a15.45,15.45,0,0,1-2.82-8.86,31.38,31.38,0,0,1,.8-6,21.81,21.81,0,0,1,2.82-5.23,12.55,12.55,0,0,1,4.43-3.62A15.26,15.26,0,0,1,529,73.26a13.88,13.88,0,0,1,7.25,2,9,9,0,0,1,2.82,6.85v.4h-4.43a4.89,4.89,0,0,0-1.21-3.62c-.8-.81-2-1.21-4-1.21a6.77,6.77,0,0,0-4,1.21,10.77,10.77,0,0,0-3.22,2.81,12.49,12.49,0,0,0-2,4,14.08,14.08,0,0,0-.81,4,6.92,6.92,0,0,0,.4,2.82c.41.8.41,1.61,1.21,2.41a4,4,0,0,0,2,1.61,5.88,5.88,0,0,0,2.82.41,8.17,8.17,0,0,0,4.43-1.21,8.85,8.85,0,0,0,2.82-3.63h4.83v.41a13.57,13.57,0,0,1-4.43,6.84,21.78,21.78,0,0,1-8.05,1.61"/><path class="cls-6" d="M567.29,100.24h-4.43v-.41l3.23-15.3V80.91a2.46,2.46,0,0,0-1.21-2.42,7.67,7.67,0,0,0-3.22-.8,7.59,7.59,0,0,0-3.22.8,7.21,7.21,0,0,0-2.82,2A8.25,8.25,0,0,0,554,82.92c-.41.81-.81,2-1.21,2.82l-2.42,14.5h-4.83v-.41L553.2,64H558l-2.82,13.29a8.77,8.77,0,0,1,3.63-2.82,12.31,12.31,0,0,1,5.23-1.21c2.42,0,4.43.4,5.64,1.61a7,7,0,0,1,2,5.23v2.42c0,.8-.4,2-.4,2.82Z"/><path class="cls-6" d="M601.52,100.24h-4.83v-.41l3.22-15.3v-.8l.4-1.21V80.91a2.44,2.44,0,0,0-1.21-2.42,6.88,6.88,0,0,0-6.44,0,7.29,7.29,0,0,0-2.82,2,8.45,8.45,0,0,0-1.61,2.41c-.4.81-.8,2-1.21,2.82l-2.81,14.5h-4.84v-.41L585,73.66h4.83l-.8,3.22a8.75,8.75,0,0,1,3.62-2.82,12.49,12.49,0,0,1,5.24-1.2c2.41,0,4.43.4,5.63,1.61a7.65,7.65,0,0,1,1.61,7.65c0,.8-.4,2-.4,2.82Z"/><path class="cls-6" d="M624.07,101a20.32,20.32,0,0,1-4.83-.8,9.6,9.6,0,0,1-3.63-2.42,14.12,14.12,0,0,1-2.41-3.62,14.27,14.27,0,0,1-.81-4.43,30.44,30.44,0,0,1,.81-6A21.35,21.35,0,0,1,616,78.49a10.86,10.86,0,0,1,4.83-3.62,16,16,0,0,1,6-1.21c3.62,0,6.44.81,8.05,2.82,2,2,2.82,4.43,2.82,8a31.19,31.19,0,0,1-.81,6,21.53,21.53,0,0,1-2.82,5.24,12.48,12.48,0,0,1-4.43,3.62,10.35,10.35,0,0,1-5.63,1.61m3.22-23.35a6.79,6.79,0,0,0-4,1.21A11,11,0,0,0,620,81.71a12.69,12.69,0,0,0-2,4,17.9,17.9,0,0,0-.81,4,6.45,6.45,0,0,0,1.61,4.83,7,7,0,0,0,5.24,2,6.74,6.74,0,0,0,4-1.21,9.25,9.25,0,0,0,2.82-2.82,12.55,12.55,0,0,0,2-4,17.82,17.82,0,0,0,.8-4,6.92,6.92,0,0,0-.4-2.82l-1.21-2.41a4,4,0,0,0-2-1.61Z"/><polygon class="cls-6" points="649.84 100.24 645 100.24 645 99.83 652.65 64 657.49 64 657.49 64.4 649.84 100.24"/><path class="cls-6" d="M673.59,101a20.32,20.32,0,0,1-4.83-.8,9.57,9.57,0,0,1-3.62-2.42,6.58,6.58,0,0,1-2-3.62,14.58,14.58,0,0,1-.8-4.43,31.18,31.18,0,0,1,.8-6,21.69,21.69,0,0,1,2.82-5.24,11,11,0,0,1,4.83-3.62,16.11,16.11,0,0,1,6-1.21c3.63,0,6.45.81,8.06,2.82a10.59,10.59,0,0,1,3.22,8,16.93,16.93,0,0,1-1.61,6,21.88,21.88,0,0,1-2.82,5.24,12.66,12.66,0,0,1-4.43,3.62,10.39,10.39,0,0,1-5.64,1.61m3.22-23.35a6.76,6.76,0,0,0-4,1.21,10.77,10.77,0,0,0-3.22,2.81,12.71,12.71,0,0,0-2,4,17.82,17.82,0,0,0-.8,4,6.41,6.41,0,0,0,1.61,4.83,7,7,0,0,0,5.23,2,6.79,6.79,0,0,0,4-1.21,9.36,9.36,0,0,0,2.82-2.82,12.53,12.53,0,0,0,2-4,17.9,17.9,0,0,0,.81-4,6.77,6.77,0,0,0-.41-2.82l-1.2-2.41a4,4,0,0,0-2-1.61Z"/><path class="cls-6" d="M705.4,110.7a13.71,13.71,0,0,1-4-.4,8.05,8.05,0,0,1-3.23-1.61c-.8-.8-2.41-1.61-2.81-2.41a6,6,0,0,1-.81-3.63v-.4h4.83v.4a3.12,3.12,0,0,0,.81,2l1.21,1.2c.4.41,1.2.41,2,.81h2.42a11.71,11.71,0,0,0,4-.81,3.63,3.63,0,0,0,2.42-2.41,8.21,8.21,0,0,0,1.61-3.22c.4-.81.4-2,.8-2.82-.8.8-2,1.61-2.82,2.41a9.37,9.37,0,0,1-4.83.81,14.27,14.27,0,0,1-4.43-.81,6.33,6.33,0,0,1-3.22-2.41,7.86,7.86,0,0,1-2-3.63,14.57,14.57,0,0,1-.81-4.43,23.85,23.85,0,0,1,.81-5.63,21.35,21.35,0,0,1,2.82-5.24,12.55,12.55,0,0,1,4.43-3.62,13,13,0,0,1,5.63-1.61,6.88,6.88,0,0,1,2.82.4l2.42,1.21a8.82,8.82,0,0,1,2,1.61,2.11,2.11,0,0,1,.81,1.61l.8-4h4.43v.41l-4.83,21.74a14.43,14.43,0,0,0-.81,4,28.74,28.74,0,0,1-1.2,3.22c-1.21,2.82-2,4.43-4,5.63a13.77,13.77,0,0,1-7.25,1.61m4.43-33a4.89,4.89,0,0,0-3.62,1.21,18.25,18.25,0,0,0-2.82,2.81,12,12,0,0,0-1.61,4,13.81,13.81,0,0,0-.4,4,5.11,5.11,0,0,0,.4,2.41,8.57,8.57,0,0,0,1.21,2,8.86,8.86,0,0,0,2,1.61,6,6,0,0,0,2.82.4,6.74,6.74,0,0,0,4-1.21,9.25,9.25,0,0,0,2.82-2.82,11.89,11.89,0,0,0,1.61-4,14.86,14.86,0,0,0,.41-4,6.45,6.45,0,0,0-1.61-4.83c-1.21-1.21-2.82-1.61-5.24-1.61"/><path class="cls-6" d="M731.57,110.7H730c-.4,0-1.2-.4-1.61-.4l.41-4h.4c.4,0,.8.4,1.21.4h1.2a3.07,3.07,0,0,0,2-.81,8.6,8.6,0,0,0,1.61-2l2.41-4-4.43-26.17h5.24v.4l2.82,20.14,10.47-20.14h5.23l-17.31,30.61c-.41.8-1.21,1.61-1.61,2.41a9,9,0,0,1-1.21,2c-.81.41-1.21,1.21-2.42,1.21a6,6,0,0,1-2.82.4"/><path class="cls-6" d="M792.78,101A3.63,3.63,0,0,1,790,99.83a3.36,3.36,0,0,1-.81-2.41,21.91,21.91,0,0,1-3.22,2.41c-1.21.81-3.22.81-5.23.81a8.89,8.89,0,0,1-3.22-.4A13.88,13.88,0,0,1,775.06,99a3.69,3.69,0,0,1-1.61-2.42,8,8,0,0,1-.81-3.62c0-2,.41-3.63,1.21-4.43a6.35,6.35,0,0,1,3.22-2.42c1.21-.4,2.82-.8,4.43-1.2a17.74,17.74,0,0,1,4.43-.41c1.21,0,2-.4,2.82-.4a17.58,17.58,0,0,0,2-.4c.4-.41.81-.41,1.21-1.21a3,3,0,0,0,.4-2c0-.81,0-1.21-.4-1.61s-.81-.81-1.21-.81c-.4-.4-.8-.4-1.61-.4-1.61-.4-2.82,0-4,0a3.09,3.09,0,0,0-2,.8,5.78,5.78,0,0,0-1.61,1.21,3.08,3.08,0,0,0-.8,2v.41h-4.83v-.41c.4-1.61.8-2.81,1.2-4a17.22,17.22,0,0,1,2.42-2.82,9.83,9.83,0,0,1,3.62-1.61,12.35,12.35,0,0,1,7.65,0A5.3,5.3,0,0,1,794,74.47a4.83,4.83,0,0,1,2,2,7.63,7.63,0,0,1,.8,3.22,5.15,5.15,0,0,1-.4,2.42c0,.8-.4,1.61-.4,2.41l-1.61,7.65a17,17,0,0,0-.41,2c0,.8-.4,1.2-.4,2a1.5,1.5,0,0,0,.4,1.21.76.76,0,0,0,1.21,0L796.4,97l-.81,3.23c-.4,0-.8.4-1.2.4-.81,0-1.21.4-1.61.4m-2-13.69c-.4.4-1.21.4-2,.81-.81,0-2,.4-2.82.4-1.21,0-2,.4-3.22.4a5.76,5.76,0,0,0-2.82.81,8.84,8.84,0,0,0-2,1.2,3.44,3.44,0,0,0-.81,2.42,2.46,2.46,0,0,0,1.21,2.42,7.63,7.63,0,0,0,3.22.8,8.86,8.86,0,0,0,7.25-3.22A4.6,4.6,0,0,0,790,90.17c.4-.81.4-2,.8-2.82"/><path class="cls-6" d="M826.6,100.24h-4.83v-.41L825,84.53V80.91a2.46,2.46,0,0,0-1.21-2.42,6.88,6.88,0,0,0-6.44,0,7.21,7.21,0,0,0-2.82,2,8.25,8.25,0,0,0-1.61,2.41c-.4.81-.81,2-1.21,2.82l-2,14.5h-4.83v-.41l5.63-26.17h4.83l-.8,3.22a8.75,8.75,0,0,1,3.62-2.82,12.49,12.49,0,0,1,5.24-1.2c2.41,0,4.43.4,5.63,1.61a7.65,7.65,0,0,1,1.61,7.65c0,.8-.4,2-.4,2.82Z"/><path class="cls-6" d="M848.34,101a14.58,14.58,0,0,1-4.43-.8,6.31,6.31,0,0,1-3.22-2.42,7.73,7.73,0,0,1-2-3.62,14.27,14.27,0,0,1-.81-4.43,30.44,30.44,0,0,1,.81-6,21.35,21.35,0,0,1,2.82-5.24,20.65,20.65,0,0,1,4.42-4,16.83,16.83,0,0,1,6-1.61,5.13,5.13,0,0,1,2.42.4,5.77,5.77,0,0,1,2.42.8,4.09,4.09,0,0,1,2,1.61A5.66,5.66,0,0,1,860,77.29L862.84,64h4.83v.4l-7.25,35.84H856L856.8,97a21.78,21.78,0,0,1-3.63,2.82,8.55,8.55,0,0,1-4.83,1.21m4.43-23.35a8.09,8.09,0,0,0-4.43,1.21,10.77,10.77,0,0,0-3.22,2.81,12.49,12.49,0,0,0-2,4,16.84,16.84,0,0,0-.81,4.43A6.41,6.41,0,0,0,843.91,95c.81,1.21,2.82,1.61,4.83,1.61a6.79,6.79,0,0,0,4-1.21A12,12,0,0,0,856,92.18a18.64,18.64,0,0,0,2-4,17.36,17.36,0,0,0,.81-4,6.41,6.41,0,0,0-1.61-4.83c-.81-1.21-2.42-1.61-4.43-1.61"/><path class="cls-6" d="M903.5,100.24H885.38v-.41L893,64h14.5c3.62,0,6,.8,7.65,2.41a8.54,8.54,0,0,1,2.42,6.45,5.91,5.91,0,0,1-.41,2.82c-.4.8-.8,2-1.21,2.81a4.83,4.83,0,0,1-2,2c-.8.4-1.21.8-2,.8a6.25,6.25,0,0,1,3.22,2.42,8.68,8.68,0,0,1,1.61,4.83,10.66,10.66,0,0,1-1.21,4.83A21.78,21.78,0,0,1,912.76,97a34.67,34.67,0,0,1-4,2.41,11.85,11.85,0,0,1-5.24.81m-12.08-4.43h13.69a7.48,7.48,0,0,0,2.82-.81,10.74,10.74,0,0,0,2.42-2c.8-.81.8-2,.8-3.63a6,6,0,0,0-.4-2.81,3.12,3.12,0,0,0-1.61-1.61c-.81-.41-1.61-.41-2.42-.81H893.84Zm3.63-16.51h10.47c4.83,0,7.24-2,7.24-6.44a4.36,4.36,0,0,0-.8-2.42,5.78,5.78,0,0,0-1.61-1.21,4.42,4.42,0,0,0-2-.4H897.06Z"/><path class="cls-6" d="M935.72,101a23.88,23.88,0,0,1-5.64-.8,14.2,14.2,0,0,1-3.63-2.42c-.8-1.21-1.61-2-1.61-3.62a11.26,11.26,0,0,1-.4-3.63,18.69,18.69,0,0,1,1.21-6.84c.8-2,1.61-4,2.82-5.24a12.66,12.66,0,0,1,4.43-3.62,11.08,11.08,0,0,1,5.23-1.21c4,0,6.85,1.21,8.46,3.22a13.31,13.31,0,0,1,2.82,8.46v2A2.39,2.39,0,0,1,949,89v.4H929.27v2c0,.8,0,2,.41,2.41a7,7,0,0,0,1.61,2c.8.4,1.2.8,2,1.2a5,5,0,0,0,2.42.41,7.23,7.23,0,0,0,4.42-1.21A8.73,8.73,0,0,0,943,92.59h4.83V93a11.81,11.81,0,0,1-1.61,4,9.33,9.33,0,0,1-2.81,2.82,14.08,14.08,0,0,1-3.63,1.61c-1.21-.8-2.82-.4-4-.4m-5.64-16.51h14.49V82.12a5.77,5.77,0,0,0-.8-2.42,4,4,0,0,0-2-1.61,6,6,0,0,0-2.82-.4,7.87,7.87,0,0,0-3.22.4,7.38,7.38,0,0,0-4,4,3.65,3.65,0,0,0-1.61,2.41"/><path class="cls-6" d="M956.25,110.7h-1.61c-.4,0-1.21-.4-1.61-.4l.8-4h.41c.4,0,.8.4,1.2.4h1.21a3.07,3.07,0,0,0,2-.81,8.86,8.86,0,0,0,1.61-2l2.41-4-4.43-26.17h5.24v.4l2.81,20.14,10.47-20.14H982L964.7,104.67c-.4.8-1.2,1.61-1.61,2.41a8.35,8.35,0,0,1-1.61,2c-.8.41-1.2,1.21-2.41,1.21a6.92,6.92,0,0,1-2.82.4"/><path class="cls-6" d="M995.71,101a20.32,20.32,0,0,1-4.83-.8,9.6,9.6,0,0,1-3.63-2.42,7.82,7.82,0,0,1-2-3.62,14.57,14.57,0,0,1-.81-4.43,31.19,31.19,0,0,1,.81-6,21.35,21.35,0,0,1,2.82-5.24,11,11,0,0,1,4.83-3.62,16.07,16.07,0,0,1,6-1.21c3.62,0,6.44.81,8.05,2.82,2,2,2.82,4.43,2.82,8a31.18,31.18,0,0,1-.8,6,21.88,21.88,0,0,1-2.82,5.24,12.66,12.66,0,0,1-4.43,3.62,16.78,16.78,0,0,1-6,1.61m3.22-23.35a6.79,6.79,0,0,0-4,1.21,11,11,0,0,0-3.22,2.81,12.69,12.69,0,0,0-2,4,17.9,17.9,0,0,0-.81,4,6.45,6.45,0,0,0,1.61,4.83,7,7,0,0,0,5.24,2,6.79,6.79,0,0,0,4-1.21,9.33,9.33,0,0,0,2.81-2.82,12.55,12.55,0,0,0,2-4,17.82,17.82,0,0,0,.8-4,6.92,6.92,0,0,0-.4-2.82l-1.21-2.41a4,4,0,0,0-2-1.61Z"/><path class="cls-6" d="M1038.39,100.24h-4.83v-.41l3.22-15.3V80.91a2.44,2.44,0,0,0-1.21-2.42,6.88,6.88,0,0,0-6.44,0,7.29,7.29,0,0,0-2.82,2,8.25,8.25,0,0,0-1.61,2.41c-.4.81-.81,2-1.21,2.82l-2.41,14.5h-4.84v-.41l5.64-26.17h4.83l-.8,3.63a8.67,8.67,0,0,1,3.62-2.82,12.36,12.36,0,0,1,5.24-1.21c2.41,0,4.42.4,5.63,1.61s1.61,2.82,1.61,5.23v2.42c0,.8-.4,2-.4,2.82Z"/><path class="cls-6" d="M1060.13,101a14.58,14.58,0,0,1-4.43-.8,6.35,6.35,0,0,1-3.22-2.42,7.82,7.82,0,0,1-2-3.62,14.57,14.57,0,0,1-.81-4.43,31.19,31.19,0,0,1,.81-6,21.35,21.35,0,0,1,2.82-5.24,21,21,0,0,1,4.43-4,16.72,16.72,0,0,1,6-1.61,5.11,5.11,0,0,1,2.41.4,5.77,5.77,0,0,1,2.42.8,4.09,4.09,0,0,1,2,1.61,5.66,5.66,0,0,1,1.21,1.62L1074.63,64h4.83v.4l-7.25,35.84h-4.43l.81-3.23a21.78,21.78,0,0,1-3.63,2.82,8.51,8.51,0,0,1-4.83,1.21m4.43-23.35a8.09,8.09,0,0,0-4.43,1.21,10.89,10.89,0,0,0-3.22,2.81,12.69,12.69,0,0,0-2,4,17.25,17.25,0,0,0-.81,4.43A6.45,6.45,0,0,0,1055.7,95c.81,1.21,2.82,1.61,4.83,1.61a6.77,6.77,0,0,0,4-1.21,12,12,0,0,0,3.22-3.22,19.16,19.16,0,0,0,2-4,17.82,17.82,0,0,0,.8-4A6.41,6.41,0,0,0,1069,79.3c-.81-1.21-2.42-1.61-4.43-1.61"/></g></g></g><text class="cls-7" transform="translate(359.96 352.59)">F<tspan class="cls-8" x="29.95" y="0">ac</tspan><tspan class="cls-9" x="89.88" y="0">t</tspan><tspan class="cls-8" x="109.85" y="0">o</tspan><tspan class="cls-10" x="141.53" y="0">r</tspan><tspan class="cls-11" x="163.49" y="0">y Di</tspan><tspan class="cls-12" x="260.78" y="0">r</tspan><tspan class="cls-11" x="281.87" y="0">ect Suppo</tspan><tspan class="cls-13" x="537.82" y="0">r</tspan><tspan class="cls-8" x="560.53" y="0">t</tspan><tspan class="cls-14" x="581.2" y="0"> </tspan><tspan class="cls-15" x="596.57" y="0">T</tspan><tspan class="cls-8" x="627.93" y="0">eam</tspan></text></svg>