<?xml version="1.0" encoding="UTF-8" standalone="no"?>
<svg
   xmlns:dc="http://purl.org/dc/elements/1.1/"
   xmlns:cc="http://creativecommons.org/ns#"
   xmlns:rdf="http://www.w3.org/1999/02/22-rdf-syntax-ns#"
   xmlns:svg="http://www.w3.org/2000/svg"
   xmlns="http://www.w3.org/2000/svg"
   xmlns:sodipodi="http://sodipodi.sourceforge.net/DTD/sodipodi-0.dtd"
   xmlns:inkscape="http://www.inkscape.org/namespaces/inkscape"
   version="1.1"
   id="レイヤー_1"
   x="0px"
   y="0px"
   viewBox="0 0 310.00001 64.000002"
   enable-background="new 0 0 238.4 53.6"
   xml:space="preserve"
   sodipodi:docname="happylogoround.svg"
   width="310"
   height="64"
   inkscape:version="1.0.1 (0767f8302a, 2020-10-17)"><metadata
   id="metadata392"><rdf:RDF><cc:Work
       rdf:about=""><dc:format>image/svg+xml</dc:format><dc:type
         rdf:resource="http://purl.org/dc/dcmitype/StillImage" /><dc:title></dc:title></cc:Work></rdf:RDF></metadata><defs
   id="defs390" /><sodipodi:namedview
   pagecolor="#ffffff"
   bordercolor="#666666"
   borderopacity="1"
   objecttolerance="10"
   gridtolerance="10"
   guidetolerance="10"
   inkscape:pageopacity="0"
   inkscape:pageshadow="2"
   inkscape:window-width="1848"
   inkscape:window-height="1014"
   id="namedview388"
   showgrid="false"
   inkscape:pagecheckerboard="true"
   inkscape:zoom="2.8284271"
   inkscape:cx="126.42831"
   inkscape:cy="25.507106"
   inkscape:window-x="72"
   inkscape:window-y="29"
   inkscape:window-maximized="1"
   inkscape:current-layer="レイヤー_1"><inkscape:grid
     type="xygrid"
     id="grid2544" /></sodipodi:namedview>
<rect
   style="fill:#ffffff;fill-opacity:1;stroke-width:1.00802"
   id="rect2542"
   width="298.2475"
   height="65.413322"
   x="12.63833"
   y="0"
   transform="matrix(1,0,-0.20674919,0.97839398,0,0)"
   ry="4.7824955" /><g
   id="_x2E_svg_2_"
   transform="translate(30,6)">
	<g
   id="g274">
		<g
   id="g262">
			<g
   id="g260">
				<g
   id="g258">
					<g
   id="g256">
						<g
   id="g248">
							<path
   fill="#004478"
   d="m 139.7,46 c -3.6,0 -5.8,-1 -6.6,-2.9 -0.8,-1.9 -0.9,-4.5 -0.1,-7.8 l 0.1,-0.7 h 5.7 l -0.2,0.7 c -0.4,2.1 -0.5,3.7 -0.3,4.5 0.2,0.9 0.9,1.3 2.2,1.3 1.3,0 2.2,-0.5 2.8,-1.4 0.4,-0.6 0.7,-1.5 1,-2.8 l 4,-18.4 h 6 l -4,18.3 c -0.5,2.4 -1.3,4.3 -2.4,5.7 -1.8,2.3 -4.6,3.5 -8.2,3.5 z"
   id="path242"
   style="fill:#bf1834;fill-opacity:1" />
							<path
   fill="#004478"
   d="m 171.1,53.4 6.3,-28.9 h 5.4 l -0.6,2.9 c 0.7,-0.8 1.5,-1.5 2.2,-1.9 1.4,-0.9 3,-1.4 4.7,-1.4 2.5,0 4.4,0.9 5.7,2.7 1.3,1.8 1.6,4.5 0.8,7.9 -0.8,3.6 -2.2,6.4 -4.3,8.3 -2.1,1.9 -4.5,2.9 -7.1,2.9 -1.7,0 -3,-0.4 -3.9,-1.2 -0.5,-0.4 -0.9,-1 -1.3,-1.8 l -2.3,10.6 h -5.6 z m 15.3,-24.5 c -1.9,0 -3.5,0.9 -4.6,2.7 -0.6,1 -1.1,2.2 -1.4,3.7 -0.5,2.4 -0.2,4 0.8,5 0.6,0.6 1.5,0.8 2.5,0.8 1.5,0 2.8,-0.6 3.8,-1.7 1,-1.1 1.8,-2.7 2.2,-4.6 0.3,-1.6 0.3,-3 -0.2,-4.2 -0.5,-1.1 -1.5,-1.7 -3.1,-1.7 z"
   id="path244" />
							<path
   fill="#004478"
   d="m 229.4,45.3 2.7,-12.6 c 0.2,-1.1 0.3,-1.9 0.1,-2.5 -0.3,-1 -1.1,-1.5 -2.6,-1.5 -1.8,0 -3.2,0.8 -4.2,2.3 -0.5,0.8 -0.9,1.9 -1.2,3.1 l -2.4,11.2 h -5.6 l 4.5,-20.7 h 5.4 l -0.6,2.8 c 0.9,-1 1.6,-1.7 2.3,-2.1 1.3,-0.8 2.8,-1.3 4.6,-1.3 2.1,0 3.8,0.6 4.9,1.7 1.1,1.1 1.4,3 0.9,5.6 l -3,14 z"
   id="path246" />
						</g>
						<g
   id="g252">
							<path
   fill="#004478"
   d="m 213.4,43.4 c 0,-0.3 0.1,-0.7 0.1,-1.2 v -0.1 c 0.1,-0.4 0.1,-0.7 0.2,-1.1 L 216,30.5 c 0.6,-2.5 0,-4.3 -1.6,-5.2 -1.6,-0.9 -3.5,-1.4 -5.8,-1.4 -3.5,0 -6.2,0.9 -8.1,2.7 -1.2,1.2 -2,2.7 -2.5,4.5 v 0.1 h 5.4 v -0.1 c 0.3,-0.8 0.7,-1.4 1.2,-1.9 0.7,-0.6 1.6,-0.9 2.9,-0.9 1.1,0 2,0.2 2.5,0.5 0.5,0.3 0.7,0.8 0.5,1.7 -0.1,0.7 -0.6,1.2 -1.5,1.5 -0.5,0.2 -1.2,0.3 -2.2,0.5 l -1.9,0.2 c -2.2,0.3 -3.9,0.7 -5.1,1.3 -2.2,1.1 -3.7,3 -4.2,5.5 -0.4,2 -0.1,3.5 0.9,4.6 1,1.1 2.5,1.6 4.4,1.6 1.5,0 2.9,-0.3 4.2,-1 1,-0.5 2,-1.2 2.9,-1.9 0,0.2 0,0.4 -0.1,0.5 v 0.1 c 0,0.2 0,0.4 0,0.6 0,0.3 0,0.6 0,0.9 V 45 h 5.7 v -0.1 c -0.3,-0.1 -0.3,-0.7 -0.2,-1.5 z M 209,37.2 c -0.4,1.8 -1.2,3 -2.3,3.7 -1.1,0.7 -2.3,1 -3.5,1 -0.7,0 -1.3,-0.2 -1.7,-0.6 -0.4,-0.4 -0.5,-1 -0.3,-1.9 0.2,-1 0.8,-1.8 1.7,-2.2 0.6,-0.3 1.4,-0.5 2.6,-0.7 l 1.3,-0.2 c 0.6,-0.1 1.2,-0.2 1.5,-0.4 0.3,-0.1 0.7,-0.3 1,-0.5 z"
   id="path250" />
						</g>
						<path
   fill="#004478"
   d="m 170.1,43.4 c 0,-0.3 0.1,-0.7 0.1,-1.2 v -0.1 c 0.1,-0.4 0.1,-0.7 0.2,-1.1 l 2.3,-10.5 c 0.6,-2.5 0,-4.3 -1.6,-5.2 -1.6,-0.9 -3.5,-1.4 -5.8,-1.4 -3.5,0 -6.2,0.9 -8.1,2.7 -1.2,1.2 -2,2.7 -2.5,4.5 v 0.1 h 5.4 v -0.1 c 0.3,-0.8 0.7,-1.4 1.2,-1.9 0.7,-0.6 1.6,-0.9 2.9,-0.9 1.1,0 2,0.2 2.5,0.5 0.5,0.3 0.7,0.8 0.5,1.7 -0.1,0.7 -0.6,1.2 -1.5,1.5 -0.5,0.2 -1.2,0.3 -2.2,0.5 l -1.9,0.2 c -2.2,0.3 -3.9,0.7 -5.1,1.3 -2.2,1.1 -3.7,3 -4.2,5.5 -0.4,2 -0.1,3.5 0.9,4.6 1,1.1 2.5,1.6 4.4,1.6 1.5,0 2.9,-0.3 4.2,-1 1,-0.5 2,-1.2 2.9,-1.9 0,0.2 0,0.4 -0.1,0.5 v 0.1 c 0,0.2 0,0.4 0,0.6 0,0.3 0,0.6 0,0.9 V 45 h 5.7 V 44.9 C 170,44.8 170,44.2 170.1,43.4 Z m -4.4,-6.2 c -0.4,1.8 -1.2,3 -2.3,3.7 -1.1,0.7 -2.3,1 -3.5,1 -0.7,0 -1.3,-0.2 -1.7,-0.6 -0.4,-0.4 -0.5,-1 -0.3,-1.9 0.2,-1 0.8,-1.8 1.7,-2.2 0.6,-0.3 1.5,-0.5 2.6,-0.7 l 1.3,-0.2 c 0.6,-0.1 1.2,-0.2 1.5,-0.4 0.3,-0.1 0.7,-0.3 1,-0.5 z"
   id="path254" />
					</g>
				</g>
			</g>
		</g>
		<path
   fill="#bf1834"
   d="m 65.1,53.4 6.3,-28.9 h 5.4 l -0.6,2.9 c 0.7,-0.8 1.5,-1.5 2.2,-1.9 1.4,-0.9 3,-1.4 4.7,-1.4 2.4,0 4.4,0.9 5.7,2.7 1.3,1.8 1.6,4.5 0.9,7.9 -0.8,3.6 -2.2,6.4 -4.3,8.3 -2.1,1.9 -4.5,2.9 -7.1,2.9 -1.7,0 -3,-0.4 -3.9,-1.2 -0.5,-0.4 -0.9,-1 -1.3,-1.8 L 70.8,53.5 H 65.1 Z M 80.4,28.9 c -2,0 -3.5,0.9 -4.6,2.7 -0.6,1 -1.1,2.2 -1.4,3.7 -0.5,2.4 -0.2,4 0.8,5 0.6,0.6 1.5,0.8 2.5,0.8 1.5,0 2.8,-0.6 3.8,-1.7 1,-1.1 1.8,-2.7 2.2,-4.6 C 84,33.2 84,31.8 83.5,30.6 83,29.5 82,28.9 80.4,28.9 Z"
   id="path264" />
		<path
   fill="#bf1834"
   d="m 87.8,53.4 6.3,-28.9 h 5.4 l -0.6,2.9 c 0.7,-0.8 1.5,-1.5 2.2,-1.9 1.4,-0.9 3,-1.4 4.7,-1.4 2.4,0 4.4,0.9 5.7,2.7 1.3,1.8 1.6,4.5 0.9,7.9 -0.8,3.6 -2.2,6.4 -4.3,8.3 -2.1,1.9 -4.4,2.9 -7.1,2.9 -1.7,0 -3,-0.4 -3.9,-1.2 -0.5,-0.4 -0.9,-1 -1.3,-1.8 l -2.3,10.6 h -5.7 z m 15.3,-24.5 c -2,0 -3.5,0.9 -4.7,2.7 -0.6,1 -1.1,2.2 -1.4,3.7 -0.5,2.4 -0.2,4 0.8,5 0.6,0.6 1.5,0.8 2.5,0.8 1.5,0 2.8,-0.6 3.8,-1.7 1,-1.1 1.8,-2.7 2.2,-4.6 0.3,-1.6 0.3,-3 -0.2,-4.2 -0.4,-1.1 -1.4,-1.7 -3,-1.7 z"
   id="path266" />
		<path
   fill="#bf1834"
   d="m 129.2,24.5 -7.5,15 -1.2,-15 h -6.2 l 3,21.6 c 0,0.1 -0.1,0.3 -0.6,1.2 -0.4,0.7 -0.8,1.1 -1.1,1.3 -0.4,0.2 -0.8,0.4 -1.3,0.4 -0.4,0 -0.7,0.1 -1.1,0.1 -0.1,0 -0.3,0 -0.4,0 H 112 l -1,4.5 h 0.1 c 0.6,0 1,0.1 1.3,0.1 0.3,0 0.7,0 1.2,0 2.4,0 4.1,-0.5 5.2,-1.4 1,-0.9 2.6,-3.4 4.9,-7.3 l 11.6,-20.4 h -6.1 z"
   id="path268" />
		<path
   fill="#bf1834"
   d="m 64,43.4 c 0,-0.3 0.1,-0.7 0.1,-1.2 v -0.1 c 0.1,-0.4 0.1,-0.7 0.2,-1.1 l 2.3,-10.5 c 0.5,-2.5 0,-4.3 -1.6,-5.2 -1.6,-0.9 -3.5,-1.4 -5.8,-1.4 -3.5,0 -6,0.9 -7.8,2.7 -1.2,1.2 -2,2.7 -2.5,4.5 v 0.1 h 5.4 v -0.1 c 0.3,-0.8 0.7,-1.4 1.2,-1.9 0.7,-0.6 1.4,-0.9 2.7,-0.9 1.1,0 1.9,0.2 2.4,0.5 0.5,0.3 0.7,0.8 0.5,1.7 -0.1,0.7 -0.6,1.2 -1.5,1.5 -0.5,0.2 -1.2,0.3 -2.2,0.5 l -1.9,0.2 c -2.2,0.3 -4.2,0.7 -5.4,1.3 -2.2,1.1 -3.7,3 -4.2,5.5 -0.4,2 -0.1,3.5 0.9,4.6 1,1.1 2.5,1.6 4.4,1.6 1.5,0 3.2,-0.3 4.6,-1 1,-0.5 2,-1.2 2.9,-1.9 0,0.2 0,0.4 0,0.5 v 0.1 c 0,0.2 0,0.4 -0.1,0.6 0,0.3 0,0.6 0,0.9 V 45 h 5.7 V 44.9 C 64,44.8 64,44.2 64,43.4 Z m -4.3,-6.2 c -0.4,1.8 -1.2,3 -2.3,3.7 -1.1,0.7 -2.6,1 -3.7,1 -0.7,0 -1.3,-0.2 -1.7,-0.6 -0.4,-0.4 -0.5,-1 -0.3,-1.9 0.2,-1 0.8,-1.8 1.7,-2.2 0.6,-0.3 1.8,-0.5 3,-0.7 l 1.2,-0.2 c 0.6,-0.1 1.2,-0.2 1.5,-0.4 0.3,-0.1 0.7,-0.3 1,-0.5 z"
   id="path270" />
		<path
   fill="#bf1834"
   d="M 49,12.1 C 47.6,10.4 45.7,9.5 43.3,9.5 H 16.4 c -5,0 -10,4.1 -11.1,9.1 L 0.2,42.1 c -0.5,2.5 0,4.8 1.4,6.5 1.4,1.7 3.4,2.6 5.8,2.6 h 26.9 c 5,0 10,-4.1 11.1,-9.1 L 50.5,18.6 C 51,16.2 50.4,13.9 49,12.1 Z M 37.7,45.4 H 31.5 L 34.2,33.2 H 23.5 l -2.7,12.2 h -6.2 l 5.9,-27.2 h 6.2 L 24.6,28 h 10.7 l 2.1,-9.8 h 6.2 z"
   id="path272" />
	</g>
	<g
   id="g354">
		<g
   id="g352">
			<g
   id="g278">
				<path
   fill="#595757"
   d="M 86.1,9 H 84.8 V 8.9 l 1.7,-7.8 h -3 L 83.7,0 H 91 l -0.3,1.1 h -3 z"
   id="path276" />
			</g>
			<g
   id="g282">
				<path
   fill="#595757"
   d="M 92.7,9.2 C 92.2,9.2 91.7,9.1 91.3,9 90.9,8.8 90.6,8.6 90.4,8.4 90.2,8.1 90,7.9 89.9,7.5 89.8,7.2 89.8,6.9 89.8,6.6 c 0,-0.6 0.1,-1.2 0.3,-1.7 0.2,-0.5 0.4,-1 0.7,-1.3 0.3,-0.4 0.7,-0.7 1.1,-0.9 0.4,-0.2 0.8,-0.3 1.3,-0.3 1,0 1.7,0.3 2.1,0.8 0.4,0.5 0.7,1.2 0.7,2.1 0,0.2 0,0.3 0,0.5 v 0.1 c 0,0 0,0.1 0,0.2 v 0.1 h -4.8 c 0,0.2 0,0.3 0,0.5 0,0.2 0,0.5 0.1,0.6 0.1,0.2 0.2,0.3 0.4,0.5 0.1,0.1 0.3,0.2 0.5,0.3 0.2,0.1 0.4,0.1 0.6,0.1 0.5,0 0.8,-0.1 1.1,-0.3 0.3,-0.2 0.5,-0.5 0.7,-0.9 v 0 h 1.2 v 0.1 c -0.1,0.4 -0.2,0.7 -0.4,1 -0.2,0.3 -0.4,0.5 -0.7,0.7 -0.3,0.2 -0.6,0.3 -0.9,0.4 -0.4,-0.1 -0.7,0 -1.1,0 z M 91.3,5.1 h 3.6 c 0,-0.2 0,-0.4 0,-0.6 C 94.9,4.3 94.8,4.1 94.7,3.9 94.6,3.7 94.4,3.6 94.2,3.5 94,3.4 93.8,3.4 93.5,3.4 c -0.3,0 -0.6,0 -0.8,0.1 -0.2,0.1 -0.4,0.2 -0.6,0.4 -0.2,0.2 -0.3,0.4 -0.4,0.6 -0.2,0.1 -0.3,0.3 -0.4,0.6 z"
   id="path280" />
			</g>
			<g
   id="g286">
				<path
   fill="#595757"
   d="M 100.7,9.2 C 99.8,9.2 99.1,9 98.7,8.5 98.3,7.9 98,7.2 98,6.3 c 0,-0.5 0.1,-1 0.2,-1.5 0.2,-0.5 0.4,-0.9 0.7,-1.3 0.3,-0.4 0.7,-0.7 1.1,-0.9 0.4,-0.2 1,-0.3 1.6,-0.3 0.7,0 1.3,0.2 1.8,0.5 0.4,0.4 0.7,0.9 0.7,1.7 V 4.6 H 103 v 0 c 0,-0.4 -0.1,-0.7 -0.3,-0.9 -0.2,-0.2 -0.5,-0.3 -1,-0.3 -0.4,0 -0.7,0.1 -1,0.3 -0.3,0.2 -0.6,0.4 -0.8,0.7 -0.2,0.3 -0.4,0.6 -0.5,1 -0.1,0.3 -0.2,0.7 -0.2,1 0,0.2 0,0.5 0.1,0.7 0.1,0.2 0.1,0.4 0.3,0.6 0.1,0.2 0.3,0.3 0.5,0.4 0.2,0.1 0.4,0.1 0.7,0.1 0.4,0 0.8,-0.1 1.1,-0.3 0.3,-0.2 0.5,-0.5 0.7,-0.9 v 0 h 1.2 v 0.1 c -0.2,0.7 -0.6,1.3 -1.1,1.7 -0.5,0.2 -1.2,0.4 -2,0.4 z"
   id="path284" />
			</g>
			<g
   id="g290">
				<path
   fill="#595757"
   d="M 111.1,9 H 110 V 8.9 l 0.8,-3.8 c 0,-0.1 0,-0.1 0,-0.2 0,-0.1 0,-0.2 0,-0.2 v 0 c 0,-0.1 0,-0.2 0,-0.3 0,-0.1 0,-0.2 0,-0.2 0,-0.3 -0.1,-0.5 -0.3,-0.6 -0.2,-0.1 -0.5,-0.2 -0.8,-0.2 -0.3,0 -0.6,0.1 -0.8,0.2 -0.3,0.1 -0.5,0.3 -0.7,0.5 -0.2,0.2 -0.3,0.4 -0.4,0.6 -0.1,0.2 -0.2,0.5 -0.3,0.7 L 106.9,9 h -1.2 V 8.9 L 107.6,0 h 1.2 l -0.7,3.3 c 0.2,-0.3 0.5,-0.5 0.9,-0.7 0.4,-0.2 0.9,-0.3 1.3,-0.3 0.6,0 1.1,0.1 1.4,0.4 0.3,0.3 0.5,0.7 0.5,1.3 0,0.1 0,0.3 0,0.6 0,0.2 -0.1,0.5 -0.1,0.7 z"
   id="path288" />
			</g>
			<g
   id="g294">
				<path
   fill="#595757"
   d="m 119.6,9 h -1.2 V 8.9 l 0.8,-3.8 c 0,-0.1 0,-0.1 0,-0.2 l 0.1,-0.3 c 0,-0.1 0,-0.2 0,-0.2 0,-0.1 0,-0.2 0,-0.2 0,-0.3 -0.1,-0.5 -0.3,-0.6 -0.2,-0.1 -0.5,-0.2 -0.8,-0.2 -0.3,0 -0.6,0.1 -0.8,0.2 -0.3,0.1 -0.5,0.3 -0.7,0.5 -0.2,0.2 -0.3,0.4 -0.4,0.6 -0.1,0.2 -0.2,0.5 -0.3,0.7 L 115.3,9 h -1.2 V 8.9 l 1.4,-6.5 h 1.2 l -0.2,0.8 c 0.2,-0.3 0.5,-0.5 0.9,-0.7 0.4,-0.2 0.9,-0.3 1.3,-0.3 0.6,0 1.1,0.1 1.4,0.4 0.3,0.3 0.5,0.7 0.5,1.3 0,0.1 0,0.3 -0.1,0.6 0,0.2 -0.1,0.5 -0.1,0.7 z"
   id="path292" />
			</g>
			<g
   id="g298">
				<path
   fill="#595757"
   d="m 125.2,9.2 c -0.4,0 -0.8,-0.1 -1.2,-0.2 -0.3,-0.1 -0.6,-0.3 -0.9,-0.6 -0.2,-0.2 -0.4,-0.5 -0.6,-0.9 -0.1,-0.3 -0.2,-0.7 -0.2,-1.1 0,-0.5 0.1,-1 0.2,-1.5 0.2,-0.5 0.4,-0.9 0.7,-1.3 0.3,-0.4 0.7,-0.7 1.2,-0.9 0.5,-0.2 1,-0.3 1.5,-0.3 0.9,0 1.6,0.2 2,0.7 0.5,0.5 0.7,1.1 0.7,2 0,0.5 -0.1,1 -0.2,1.5 -0.2,0.5 -0.4,0.9 -0.7,1.3 -0.3,0.4 -0.7,0.7 -1.1,0.9 -0.3,0.2 -0.8,0.4 -1.4,0.4 z M 126,3.4 c -0.4,0 -0.7,0.1 -1,0.3 -0.3,0.2 -0.6,0.4 -0.8,0.7 -0.2,0.3 -0.4,0.6 -0.5,1 -0.1,0.4 -0.2,0.7 -0.2,1 0,0.5 0.1,0.9 0.4,1.2 0.3,0.3 0.7,0.5 1.3,0.5 0.4,0 0.7,-0.1 1,-0.3 0.3,-0.2 0.5,-0.4 0.7,-0.7 0.2,-0.3 0.4,-0.6 0.5,-1 0.1,-0.4 0.2,-0.7 0.2,-1 0,-0.2 0,-0.5 -0.1,-0.7 -0.1,-0.2 -0.2,-0.4 -0.3,-0.6 -0.1,-0.2 -0.3,-0.3 -0.5,-0.4 -0.1,0 -0.4,0 -0.7,0 z"
   id="path296" />
			</g>
			<g
   id="g302">
				<path
   fill="#595757"
   d="m 131.6,9 h -1.2 V 8.9 L 132.3,0 h 1.2 v 0.1 z"
   id="path300" />
			</g>
			<g
   id="g306">
				<path
   fill="#595757"
   d="M 137.5,9.2 C 137.1,9.2 136.7,9.1 136.3,9 136,8.9 135.7,8.7 135.4,8.4 135.1,8.1 135,7.9 134.9,7.5 c -0.1,-0.3 -0.2,-0.7 -0.2,-1.1 0,-0.5 0.1,-1 0.2,-1.5 0.2,-0.5 0.4,-0.9 0.7,-1.3 0.3,-0.4 0.7,-0.7 1.2,-0.9 0.5,-0.2 1,-0.3 1.5,-0.3 0.9,0 1.6,0.2 2,0.7 0.5,0.5 0.8,1.1 0.8,2 0,0.5 -0.2,1 -0.4,1.5 -0.2,0.5 -0.4,0.9 -0.7,1.3 -0.3,0.4 -0.7,0.7 -1.1,0.9 -0.3,0.2 -0.8,0.4 -1.4,0.4 z m 0.8,-5.8 c -0.4,0 -0.7,0.1 -1,0.3 -0.3,0.2 -0.6,0.4 -0.8,0.7 -0.2,0.3 -0.4,0.6 -0.5,1 -0.1,0.4 -0.2,0.7 -0.2,1 0,0.5 0.1,0.9 0.4,1.2 0.3,0.3 0.7,0.5 1.3,0.5 0.4,0 0.7,-0.1 1,-0.3 0.3,-0.2 0.5,-0.4 0.7,-0.7 0.2,-0.3 0.4,-0.6 0.5,-1 0.1,-0.4 0.2,-0.7 0.2,-1 0,-0.2 0,-0.5 -0.1,-0.7 -0.1,-0.2 -0.2,-0.4 -0.3,-0.6 -0.1,-0.2 -0.3,-0.3 -0.5,-0.4 -0.2,0 -0.4,0 -0.7,0 z"
   id="path304" />
			</g>
			<g
   id="g310">
				<path
   fill="#595757"
   d="m 145.4,11.6 c -0.3,0 -0.7,0 -1,-0.1 -0.3,-0.1 -0.6,-0.2 -0.8,-0.4 -0.2,-0.2 -0.6,-0.4 -0.7,-0.6 -0.2,-0.3 -0.2,-0.6 -0.2,-0.9 V 9.5 h 1.2 v 0.1 c 0,0.2 0.1,0.4 0.2,0.5 0.1,0.1 0.2,0.2 0.3,0.3 0.1,0.1 0.3,0.1 0.5,0.2 0.2,0 0.4,0 0.6,0 0.4,0 0.7,-0.1 1,-0.2 0.3,-0.1 0.5,-0.3 0.6,-0.6 0.2,-0.2 0.3,-0.5 0.4,-0.8 0.1,-0.2 0.1,-0.5 0.2,-0.7 -0.2,0.2 -0.5,0.4 -0.7,0.6 -0.4,0.2 -0.7,0.2 -1.2,0.2 -0.4,0 -0.8,-0.1 -1.1,-0.2 -0.3,-0.1 -0.6,-0.3 -0.8,-0.6 -0.2,-0.2 -0.4,-0.5 -0.5,-0.9 -0.1,-0.3 -0.2,-0.7 -0.2,-1.1 0,-0.5 0.1,-1 0.2,-1.4 0.2,-0.5 0.4,-0.9 0.7,-1.3 0.3,-0.4 0.7,-0.7 1.1,-0.9 0.4,-0.2 0.9,-0.4 1.4,-0.4 0.2,0 0.5,0 0.7,0.1 0.2,0.1 0.4,0.2 0.6,0.3 0.2,0.1 0.4,0.3 0.5,0.4 0.1,0.1 0.2,0.2 0.2,0.4 l 0.2,-1 h 1.1 V 2.6 L 148.7,8 c -0.1,0.3 -0.2,0.7 -0.2,1 -0.1,0.3 -0.2,0.6 -0.3,0.8 -0.3,0.7 -0.5,1.1 -1,1.4 -0.5,0.3 -1.1,0.4 -1.8,0.4 z m 1.1,-8.2 c -0.4,0 -0.7,0.1 -0.9,0.3 -0.3,0.2 -0.5,0.5 -0.7,0.7 -0.2,0.3 -0.3,0.6 -0.4,1 -0.1,0.3 -0.1,0.7 -0.1,1 0,0.2 0,0.4 0.1,0.6 0.1,0.2 0.2,0.4 0.3,0.5 0.1,0.1 0.3,0.3 0.5,0.4 0.2,0.1 0.4,0.1 0.7,0.1 0.4,0 0.7,-0.1 1,-0.3 0.3,-0.2 0.5,-0.4 0.7,-0.7 0.2,-0.3 0.3,-0.6 0.4,-1 0.1,-0.4 0.1,-0.7 0.1,-1 0,-0.5 -0.1,-0.9 -0.4,-1.2 -0.3,-0.3 -0.7,-0.4 -1.3,-0.4 z"
   id="path308" />
			</g>
			<g
   id="g314">
				<path
   fill="#595757"
   d="m 151.9,11.6 c -0.1,0 -0.3,0 -0.4,0 -0.1,0 -0.3,-0.1 -0.4,-0.1 v 0 l 0.1,-1 h 0.1 c 0.1,0 0.2,0.1 0.3,0.1 0.1,0 0.2,0 0.3,0 0.2,0 0.4,-0.1 0.5,-0.2 0.1,-0.1 0.3,-0.3 0.4,-0.5 l 0.6,-1 -1.1,-6.5 h 1.3 v 0.1 l 0.7,5 2.6,-5 h 1.3 l -4.3,7.6 c -0.1,0.2 -0.3,0.4 -0.4,0.6 -0.1,0.2 -0.2,0.4 -0.3,0.5 -0.2,0.1 -0.3,0.3 -0.6,0.3 -0.2,0.1 -0.4,0.1 -0.7,0.1 z"
   id="path312" />
			</g>
			<g
   id="g318">
				<path
   fill="#595757"
   d="m 167.1,9.2 c -0.3,0 -0.5,-0.1 -0.7,-0.3 -0.1,-0.1 -0.2,-0.3 -0.2,-0.6 -0.2,0.2 -0.5,0.4 -0.8,0.6 -0.3,0.2 -0.8,0.2 -1.3,0.2 -0.3,0 -0.5,0 -0.8,-0.1 -0.2,-0.1 -0.5,-0.2 -0.6,-0.3 -0.2,-0.1 -0.3,-0.3 -0.4,-0.6 -0.1,-0.2 -0.2,-0.5 -0.2,-0.9 0,-0.5 0.1,-0.9 0.3,-1.1 0.2,-0.3 0.5,-0.5 0.8,-0.6 0.3,-0.1 0.7,-0.2 1.1,-0.3 0.4,-0.1 0.8,-0.1 1.1,-0.1 0.3,0 0.5,-0.1 0.7,-0.1 0.2,0 0.4,-0.1 0.5,-0.1 0.1,-0.1 0.2,-0.1 0.3,-0.3 0.1,-0.1 0.1,-0.3 0.1,-0.5 0,-0.2 0,-0.3 -0.1,-0.4 -0.1,-0.1 -0.2,-0.2 -0.3,-0.2 -0.1,-0.1 -0.2,-0.1 -0.4,-0.1 -0.4,-0.1 -0.7,0 -1,0 -0.2,0 -0.4,0.1 -0.5,0.2 -0.2,0.1 -0.3,0.2 -0.4,0.3 -0.1,0.1 -0.2,0.3 -0.2,0.5 v 0.1 h -1.2 V 4.4 c 0.1,-0.4 0.2,-0.7 0.3,-1 0.2,-0.3 0.4,-0.5 0.6,-0.7 0.3,-0.2 0.5,-0.3 0.9,-0.4 0.6,-0.2 1.3,-0.2 1.9,0 0.3,0 0.5,0.1 0.8,0.3 0.2,0.1 0.4,0.3 0.5,0.5 0.1,0.2 0.2,0.5 0.2,0.8 0,0.2 0,0.4 -0.1,0.6 0,0.2 -0.1,0.4 -0.1,0.6 L 167.5,7 c 0,0.1 -0.1,0.3 -0.1,0.5 0,0.2 -0.1,0.3 -0.1,0.5 0,0.1 0,0.2 0.1,0.3 0.1,0.1 0.2,0.1 0.3,0 L 168,8.2 167.8,9 v 0 c -0.1,0 -0.2,0.1 -0.3,0.1 -0.2,0 -0.3,0.1 -0.4,0.1 z m -0.5,-3.4 c -0.1,0.1 -0.3,0.1 -0.5,0.2 -0.2,0 -0.5,0.1 -0.7,0.1 -0.3,0 -0.5,0.1 -0.8,0.1 -0.3,0 -0.5,0.1 -0.7,0.2 -0.2,0.1 -0.4,0.2 -0.5,0.3 -0.1,0.1 -0.2,0.3 -0.2,0.6 0,0.3 0.1,0.5 0.3,0.6 0.2,0.1 0.5,0.2 0.8,0.2 0.8,0 1.4,-0.3 1.8,-0.8 0.2,-0.2 0.3,-0.5 0.3,-0.8 0.1,-0.2 0.1,-0.5 0.2,-0.7 z"
   id="path316" />
			</g>
			<g
   id="g322">
				<path
   fill="#595757"
   d="m 175.5,9 h -1.2 V 8.9 l 0.8,-3.8 c 0,-0.1 0,-0.1 0,-0.2 0,-0.1 0,-0.2 0,-0.2 v 0 c 0,-0.1 0,-0.2 0,-0.3 0,-0.1 0,-0.2 0,-0.2 0,-0.3 -0.1,-0.5 -0.3,-0.6 -0.2,-0.1 -0.5,-0.2 -0.8,-0.2 -0.3,0 -0.6,0.1 -0.8,0.2 -0.3,0.1 -0.5,0.3 -0.7,0.5 -0.2,0.2 -0.3,0.4 -0.4,0.6 -0.1,0.2 -0.2,0.5 -0.3,0.7 L 171.3,9 h -1.2 V 8.9 l 1.4,-6.5 h 1.2 l -0.2,0.8 c 0.2,-0.3 0.5,-0.5 0.9,-0.7 0.4,-0.2 0.9,-0.3 1.3,-0.3 0.6,0 1.1,0.1 1.4,0.4 0.3,0.3 0.5,0.7 0.5,1.3 0,0.1 0,0.3 -0.1,0.6 0,0.2 -0.1,0.5 -0.1,0.7 z"
   id="path320" />
			</g>
			<g
   id="g326">
				<path
   fill="#595757"
   d="m 180.9,9.2 c -0.4,0 -0.8,-0.1 -1.1,-0.2 -0.3,-0.1 -0.6,-0.3 -0.8,-0.6 -0.2,-0.2 -0.4,-0.5 -0.5,-0.9 -0.1,-0.3 -0.2,-0.7 -0.2,-1.1 0,-0.5 0.1,-1 0.2,-1.5 0.2,-0.5 0.4,-0.9 0.7,-1.3 0.3,-0.4 0.7,-0.7 1.1,-1 0.5,-0.2 1,-0.4 1.5,-0.4 0.2,0 0.4,0 0.6,0.1 0.2,0 0.4,0.1 0.6,0.2 0.2,0.1 0.4,0.2 0.5,0.4 0.1,0.1 0.2,0.2 0.3,0.4 L 184.5,0 h 1.2 V 0.1 L 183.9,9 h -1.1 L 183,8.2 c -0.3,0.3 -0.6,0.5 -0.9,0.7 -0.3,0.2 -0.7,0.3 -1.2,0.3 z M 182,3.4 c -0.4,0 -0.8,0.1 -1.1,0.3 -0.3,0.2 -0.6,0.4 -0.8,0.7 -0.2,0.3 -0.4,0.6 -0.5,1 -0.1,0.4 -0.2,0.7 -0.2,1.1 0,0.5 0.1,0.9 0.4,1.2 0.2,0.3 0.7,0.4 1.2,0.4 0.4,0 0.7,-0.1 1,-0.3 0.3,-0.2 0.6,-0.5 0.8,-0.8 0.2,-0.3 0.4,-0.7 0.5,-1 0.1,-0.4 0.2,-0.7 0.2,-1 0,-0.5 -0.1,-0.9 -0.4,-1.2 -0.2,-0.3 -0.6,-0.4 -1.1,-0.4 z"
   id="path324" />
			</g>
			<g
   id="g330">
				<path
   fill="#595757"
   d="m 194.6,9 h -4.5 V 8.9 L 192,0 h 3.6 c 0.9,0 1.5,0.2 1.9,0.6 0.4,0.4 0.6,0.9 0.6,1.6 0,0.3 0,0.5 -0.1,0.7 -0.1,0.2 -0.2,0.5 -0.3,0.7 -0.1,0.2 -0.3,0.4 -0.5,0.5 -0.2,0.1 -0.3,0.2 -0.5,0.2 0.3,0.1 0.6,0.3 0.8,0.6 0.2,0.3 0.4,0.7 0.4,1.2 0,0.4 -0.1,0.8 -0.3,1.2 -0.2,0.3 -0.4,0.6 -0.7,0.9 -0.3,0.2 -0.6,0.4 -1,0.6 C 195.5,9 195,9 194.6,9 Z m -3,-1.1 h 2.8 c 0.1,0 0.3,0 0.6,0 0.2,0 0.5,-0.1 0.7,-0.2 0.2,-0.1 0.4,-0.3 0.6,-0.5 0.2,-0.2 0.2,-0.5 0.2,-0.9 0,-0.3 0,-0.5 -0.1,-0.7 C 196.3,5.4 196.2,5.3 196,5.2 195.8,5.1 195.6,5.1 195.4,5 195.2,5 195,5 194.7,5 h -2.5 z m 0.9,-4.1 h 2.6 c 1.2,0 1.8,-0.5 1.8,-1.6 0,-0.3 -0.1,-0.4 -0.2,-0.6 -0.1,-0.1 -0.2,-0.2 -0.4,-0.3 -0.2,-0.1 -0.4,-0.1 -0.5,-0.1 -0.2,0 -0.4,0 -0.6,0 H 193 Z"
   id="path328" />
			</g>
			<g
   id="g334">
				<path
   fill="#595757"
   d="m 202.6,9.2 c -0.5,0 -1,-0.1 -1.4,-0.2 -0.4,-0.2 -0.7,-0.4 -0.9,-0.6 -0.2,-0.3 -0.4,-0.5 -0.4,-0.9 -0.1,-0.3 -0.1,-0.6 -0.1,-0.9 0,-0.6 0.1,-1.2 0.3,-1.7 0.2,-0.5 0.4,-1 0.7,-1.3 0.3,-0.4 0.7,-0.7 1.1,-0.9 0.4,-0.2 0.8,-0.3 1.3,-0.3 1,0 1.7,0.3 2.1,0.8 0.4,0.5 0.7,1.2 0.7,2.1 0,0.2 0,0.3 0,0.5 0,0.1 0,0.3 -0.1,0.4 V 6.3 H 201 c 0,0.2 0,0.3 0,0.5 0,0.2 0,0.5 0.1,0.6 0.1,0.2 0.2,0.3 0.4,0.5 0.2,0.1 0.3,0.2 0.5,0.3 0.2,0.1 0.4,0.1 0.6,0.1 0.5,0 0.8,-0.1 1.1,-0.3 0.3,-0.2 0.5,-0.5 0.7,-0.9 v 0 h 1.2 v 0.1 c -0.1,0.4 -0.2,0.7 -0.4,1 -0.2,0.3 -0.4,0.5 -0.7,0.7 -0.3,0.2 -0.6,0.3 -0.9,0.4 -0.3,-0.2 -0.7,-0.1 -1,-0.1 z m -1.4,-4.1 h 3.6 c 0,-0.2 0,-0.4 0,-0.6 0,-0.2 -0.1,-0.4 -0.2,-0.6 -0.1,-0.2 -0.3,-0.3 -0.5,-0.4 -0.2,-0.1 -0.4,-0.1 -0.7,-0.1 -0.3,0 -0.6,0 -0.8,0.1 -0.2,0.1 -0.4,0.2 -0.6,0.4 -0.2,0.2 -0.3,0.4 -0.4,0.6 -0.2,0.1 -0.3,0.3 -0.4,0.6 z"
   id="path332" />
			</g>
			<g
   id="g338">
				<path
   fill="#595757"
   d="m 207.7,11.6 c -0.1,0 -0.3,0 -0.4,0 -0.1,0 -0.3,-0.1 -0.4,-0.1 v 0 l 0.2,-1 h 0.1 c 0.1,0 0.2,0.1 0.3,0.1 0.1,0 0.2,0 0.3,0 0.2,0 0.4,-0.1 0.5,-0.2 0.1,-0.1 0.3,-0.3 0.4,-0.5 l 0.6,-1 -1.1,-6.5 h 1.3 v 0.1 l 0.7,5 2.6,-5 h 1.3 l -4.3,7.6 c -0.1,0.2 -0.3,0.4 -0.4,0.6 -0.1,0.2 -0.3,0.4 -0.4,0.5 -0.2,0.1 -0.3,0.3 -0.6,0.3 -0.2,0.1 -0.5,0.1 -0.7,0.1 z"
   id="path336" />
			</g>
			<g
   id="g342">
				<path
   fill="#595757"
   d="M 217.5,9.2 C 217.1,9.2 216.7,9.1 216.3,9 216,8.9 215.7,8.7 215.4,8.4 215.2,8.2 215,7.9 214.9,7.5 c -0.1,-0.3 -0.2,-0.7 -0.2,-1.1 0,-0.5 0.1,-1 0.2,-1.5 0.2,-0.5 0.4,-0.9 0.7,-1.3 0.3,-0.4 0.7,-0.7 1.2,-0.9 0.5,-0.2 1,-0.3 1.5,-0.3 0.9,0 1.6,0.2 2,0.7 0.5,0.5 0.7,1.1 0.7,2 0,0.5 -0.1,1 -0.2,1.5 -0.2,0.5 -0.4,0.9 -0.7,1.3 -0.3,0.4 -0.7,0.7 -1.1,0.9 -0.5,0.2 -1,0.4 -1.5,0.4 z m 0.8,-5.8 c -0.4,0 -0.7,0.1 -1,0.3 -0.3,0.2 -0.6,0.4 -0.8,0.7 -0.2,0.3 -0.4,0.6 -0.5,1 -0.1,0.4 -0.2,0.7 -0.2,1 0,0.5 0.1,0.9 0.4,1.2 0.3,0.3 0.7,0.5 1.3,0.5 0.4,0 0.7,-0.1 1,-0.3 0.3,-0.2 0.5,-0.4 0.7,-0.7 0.2,-0.3 0.4,-0.6 0.5,-1 0.1,-0.4 0.2,-0.7 0.2,-1 0,-0.2 0,-0.5 -0.1,-0.7 -0.1,-0.2 -0.2,-0.4 -0.3,-0.6 -0.1,-0.2 -0.3,-0.3 -0.5,-0.4 -0.2,0 -0.5,0 -0.7,0 z"
   id="path340" />
			</g>
			<g
   id="g346">
				<path
   fill="#595757"
   d="m 228.1,9 h -1.2 V 8.9 l 0.8,-3.8 c 0,-0.1 0,-0.1 0,-0.2 0,-0.1 0,-0.2 0,-0.2 v 0 c 0,-0.1 0,-0.2 0,-0.3 0,-0.1 0,-0.2 0,-0.2 0,-0.3 -0.1,-0.5 -0.3,-0.6 -0.2,-0.1 -0.5,-0.2 -0.8,-0.2 -0.3,0 -0.6,0.1 -0.8,0.2 -0.3,0.1 -0.5,0.3 -0.7,0.5 -0.2,0.2 -0.3,0.4 -0.4,0.6 -0.1,0.2 -0.2,0.5 -0.3,0.7 L 223.8,9 h -1.2 V 8.9 L 224,2.4 h 1.2 L 225,3.3 c 0.2,-0.3 0.5,-0.5 0.9,-0.7 0.4,-0.2 0.9,-0.3 1.3,-0.3 0.6,0 1.1,0.1 1.4,0.4 0.3,0.3 0.4,0.7 0.4,1.3 0,0.1 0,0.3 0,0.6 0,0.2 -0.1,0.5 -0.1,0.7 z"
   id="path344" />
			</g>
			<g
   id="g350">
				<path
   fill="#595757"
   d="m 233.5,9.2 c -0.4,0 -0.8,-0.1 -1.1,-0.2 -0.3,-0.1 -0.6,-0.3 -0.8,-0.6 -0.2,-0.2 -0.4,-0.5 -0.5,-0.9 -0.1,-0.3 -0.2,-0.7 -0.2,-1.1 0,-0.5 0.1,-1 0.2,-1.5 0.2,-0.5 0.4,-0.9 0.7,-1.3 0.3,-0.4 0.7,-0.7 1.1,-1 0.5,-0.2 1,-0.4 1.5,-0.4 0.2,0 0.4,0 0.6,0.1 0.2,0 0.4,0.1 0.6,0.2 0.2,0.1 0.4,0.2 0.5,0.4 0.1,0.1 0.2,0.2 0.3,0.4 L 237.1,0 h 1.2 V 0.1 L 236.5,9 h -1.1 l 0.2,-0.8 c -0.3,0.3 -0.6,0.5 -0.9,0.7 -0.3,0.2 -0.7,0.3 -1.2,0.3 z m 1.1,-5.8 c -0.4,0 -0.8,0.1 -1.1,0.3 -0.3,0.2 -0.6,0.4 -0.8,0.7 -0.2,0.3 -0.4,0.6 -0.5,1 -0.1,0.4 -0.2,0.7 -0.2,1.1 0,0.5 0.1,0.9 0.4,1.2 0.2,0.3 0.7,0.4 1.2,0.4 0.4,0 0.7,-0.1 1,-0.3 0.3,-0.2 0.6,-0.5 0.8,-0.8 0.2,-0.3 0.4,-0.7 0.5,-1 0.1,-0.4 0.2,-0.7 0.2,-1 0,-0.5 -0.1,-0.9 -0.4,-1.2 -0.2,-0.3 -0.6,-0.4 -1.1,-0.4 z"
   id="path348" />
			</g>
		</g>
	</g>
</g>
<g
   id="g357">
</g>
<g
   id="g359">
</g>
<g
   id="g361">
</g>
<g
   id="g363">
</g>
<g
   id="g365">
</g>
<g
   id="g367">
</g>
<g
   id="g369">
</g>
<g
   id="g371">
</g>
<g
   id="g373">
</g>
<g
   id="g375">
</g>
<g
   id="g377">
</g>
<g
   id="g379">
</g>
<g
   id="g381">
</g>
<g
   id="g383">
</g>
<g
   id="g385">
</g>
</svg>
