<?xml version="1.0" encoding="utf-8"?>
<!-- Generator: Adobe Illustrator 18.0.0, SVG Export Plug-In . SVG Version: 6.00 Build 0)  -->
<!DOCTYPE svg PUBLIC "-//W3C//DTD SVG 1.1//EN" "http://www.w3.org/Graphics/SVG/1.1/DTD/svg11.dtd">
<svg version="1.1" id="レイヤー_1" xmlns="http://www.w3.org/2000/svg" xmlns:xlink="http://www.w3.org/1999/xlink" x="0px"
	 y="0px" viewBox="0 0 238.4 53.6" enable-background="new 0 0 238.4 53.6" xml:space="preserve">
<g id="_x2E_svg_2_">
	<g>
		<g>
			<g>
				<g>
					<g>
						<g>
							<path fill="#004478" d="M139.7,46c-3.6,0-5.8-1-6.6-2.9c-0.8-1.9-0.9-4.5-0.1-7.8l0.1-0.7h5.7l-0.2,0.7
								c-0.4,2.1-0.5,3.7-0.3,4.5c0.2,0.9,0.9,1.3,2.2,1.3c1.3,0,2.2-0.5,2.8-1.4c0.4-0.6,0.7-1.5,1-2.8l4-18.4h6l-4,18.3
								c-0.5,2.4-1.3,4.3-2.4,5.7C146.1,44.8,143.3,46,139.7,46z"/>
							<path fill="#004478" d="M171.1,53.4l6.3-28.9h5.4l-0.6,2.9c0.7-0.8,1.5-1.5,2.2-1.9c1.4-0.9,3-1.4,4.7-1.4
								c2.5,0,4.4,0.9,5.7,2.7c1.3,1.8,1.6,4.5,0.8,7.9c-0.8,3.6-2.2,6.4-4.3,8.3c-2.1,1.9-4.5,2.9-7.1,2.9c-1.7,0-3-0.4-3.9-1.2
								c-0.5-0.4-0.9-1-1.3-1.8l-2.3,10.6H171.1z M186.4,28.9c-1.9,0-3.5,0.9-4.6,2.7c-0.6,1-1.1,2.2-1.4,3.7c-0.5,2.4-0.2,4,0.8,5
								c0.6,0.6,1.5,0.8,2.5,0.8c1.5,0,2.8-0.6,3.8-1.7c1-1.1,1.8-2.7,2.2-4.6c0.3-1.6,0.3-3-0.2-4.2C189,29.5,188,28.9,186.4,28.9z
								"/>
							<path fill="#004478" d="M229.4,45.3l2.7-12.6c0.2-1.1,0.3-1.9,0.1-2.5c-0.3-1-1.1-1.5-2.6-1.5c-1.8,0-3.2,0.8-4.2,2.3
								c-0.5,0.8-0.9,1.9-1.2,3.1l-2.4,11.2h-5.6l4.5-20.7h5.4l-0.6,2.8c0.9-1,1.6-1.7,2.3-2.1c1.3-0.8,2.8-1.3,4.6-1.3
								c2.1,0,3.8,0.6,4.9,1.7c1.1,1.1,1.4,3,0.9,5.6l-3,14H229.4z"/>
						</g>
						<g>
							<path fill="#004478" d="M213.4,43.4c0-0.3,0.1-0.7,0.1-1.2l0-0.1c0.1-0.4,0.1-0.7,0.2-1.1l2.3-10.5c0.6-2.5,0-4.3-1.6-5.2
								c-1.6-0.9-3.5-1.4-5.8-1.4c-3.5,0-6.2,0.9-8.1,2.7c-1.2,1.2-2,2.7-2.5,4.5l0,0.1h5.4l0-0.1c0.3-0.8,0.7-1.4,1.2-1.9
								c0.7-0.6,1.6-0.9,2.9-0.9c1.1,0,2,0.2,2.5,0.5c0.5,0.3,0.7,0.8,0.5,1.7c-0.1,0.7-0.6,1.2-1.5,1.5c-0.5,0.2-1.2,0.3-2.2,0.5
								l-1.9,0.2c-2.2,0.3-3.9,0.7-5.1,1.3c-2.2,1.1-3.7,3-4.2,5.5c-0.4,2-0.1,3.5,0.9,4.6c1,1.1,2.5,1.6,4.4,1.6
								c1.5,0,2.9-0.3,4.2-1c1-0.5,2-1.2,2.9-1.9c0,0.2,0,0.4-0.1,0.5l0,0.1c0,0.2,0,0.4,0,0.6c0,0.3,0,0.6,0,0.9l0,0.1h5.7l0-0.1
								C213.3,44.8,213.3,44.2,213.4,43.4z M209,37.2c-0.4,1.8-1.2,3-2.3,3.7c-1.1,0.7-2.3,1-3.5,1c-0.7,0-1.3-0.2-1.7-0.6
								c-0.4-0.4-0.5-1-0.3-1.9c0.2-1,0.8-1.8,1.7-2.2c0.6-0.3,1.4-0.5,2.6-0.7l1.3-0.2c0.6-0.1,1.2-0.2,1.5-0.4
								c0.3-0.1,0.7-0.3,1-0.5L209,37.2z"/>
						</g>
						<path fill="#004478" d="M170.1,43.4c0-0.3,0.1-0.7,0.1-1.2l0-0.1c0.1-0.4,0.1-0.7,0.2-1.1l2.3-10.5c0.6-2.5,0-4.3-1.6-5.2
							c-1.6-0.9-3.5-1.4-5.8-1.4c-3.5,0-6.2,0.9-8.1,2.7c-1.2,1.2-2,2.7-2.5,4.5l0,0.1h5.4l0-0.1c0.3-0.8,0.7-1.4,1.2-1.9
							c0.7-0.6,1.6-0.9,2.9-0.9c1.1,0,2,0.2,2.5,0.5c0.5,0.3,0.7,0.8,0.5,1.7c-0.1,0.7-0.6,1.2-1.5,1.5c-0.5,0.2-1.2,0.3-2.2,0.5
							l-1.9,0.2c-2.2,0.3-3.9,0.7-5.1,1.3c-2.2,1.1-3.7,3-4.2,5.5c-0.4,2-0.1,3.5,0.9,4.6c1,1.1,2.5,1.6,4.4,1.6
							c1.5,0,2.9-0.3,4.2-1c1-0.5,2-1.2,2.9-1.9c0,0.2,0,0.4-0.1,0.5l0,0.1c0,0.2,0,0.4,0,0.6c0,0.3,0,0.6,0,0.9l0,0.1h5.7l0-0.1
							C170,44.8,170,44.2,170.1,43.4z M165.7,37.2c-0.4,1.8-1.2,3-2.3,3.7c-1.1,0.7-2.3,1-3.5,1c-0.7,0-1.3-0.2-1.7-0.6
							c-0.4-0.4-0.5-1-0.3-1.9c0.2-1,0.8-1.8,1.7-2.2c0.6-0.3,1.5-0.5,2.6-0.7l1.3-0.2c0.6-0.1,1.2-0.2,1.5-0.4
							c0.3-0.1,0.7-0.3,1-0.5L165.7,37.2z"/>
					</g>
				</g>
			</g>
		</g>
		<path fill="#BF1834" d="M65.1,53.4l6.3-28.9h5.4l-0.6,2.9c0.7-0.8,1.5-1.5,2.2-1.9c1.4-0.9,3-1.4,4.7-1.4c2.4,0,4.4,0.9,5.7,2.7
			c1.3,1.8,1.6,4.5,0.9,7.9c-0.8,3.6-2.2,6.4-4.3,8.3c-2.1,1.9-4.5,2.9-7.1,2.9c-1.7,0-3-0.4-3.9-1.2c-0.5-0.4-0.9-1-1.3-1.8
			l-2.3,10.6H65.1z M80.4,28.9c-2,0-3.5,0.9-4.6,2.7c-0.6,1-1.1,2.2-1.4,3.7c-0.5,2.4-0.2,4,0.8,5c0.6,0.6,1.5,0.8,2.5,0.8
			c1.5,0,2.8-0.6,3.8-1.7c1-1.1,1.8-2.7,2.2-4.6c0.3-1.6,0.3-3-0.2-4.2C83,29.5,82,28.9,80.4,28.9z"/>
		<path fill="#BF1834" d="M87.8,53.4l6.3-28.9h5.4l-0.6,2.9c0.7-0.8,1.5-1.5,2.2-1.9c1.4-0.9,3-1.4,4.7-1.4c2.4,0,4.4,0.9,5.7,2.7
			c1.3,1.8,1.6,4.5,0.9,7.9c-0.8,3.6-2.2,6.4-4.3,8.3c-2.1,1.9-4.4,2.9-7.1,2.9c-1.7,0-3-0.4-3.9-1.2c-0.5-0.4-0.9-1-1.3-1.8
			l-2.3,10.6H87.8z M103.1,28.9c-2,0-3.5,0.9-4.7,2.7c-0.6,1-1.1,2.2-1.4,3.7c-0.5,2.4-0.2,4,0.8,5c0.6,0.6,1.5,0.8,2.5,0.8
			c1.5,0,2.8-0.6,3.8-1.7c1-1.1,1.8-2.7,2.2-4.6c0.3-1.6,0.3-3-0.2-4.2C105.7,29.5,104.7,28.9,103.1,28.9z"/>
		<path fill="#BF1834" d="M129.2,24.5l-7.5,15l-1.2-15h-6.2l3,21.6c0,0.1-0.1,0.3-0.6,1.2c-0.4,0.7-0.8,1.1-1.1,1.3
			c-0.4,0.2-0.8,0.4-1.3,0.4c-0.4,0-0.7,0.1-1.1,0.1c-0.1,0-0.3,0-0.4,0l-0.8,0l-1,4.5l0.1,0c0.6,0,1,0.1,1.3,0.1c0.3,0,0.7,0,1.2,0
			c2.4,0,4.1-0.5,5.2-1.4c1-0.9,2.6-3.4,4.9-7.3l11.6-20.4H129.2z"/>
		<path fill="#BF1834" d="M64,43.4c0-0.3,0.1-0.7,0.1-1.2l0-0.1c0.1-0.4,0.1-0.7,0.2-1.1l2.3-10.5c0.5-2.5,0-4.3-1.6-5.2
			c-1.6-0.9-3.5-1.4-5.8-1.4c-3.5,0-6,0.9-7.8,2.7c-1.2,1.2-2,2.7-2.5,4.5l0,0.1h5.4l0-0.1c0.3-0.8,0.7-1.4,1.2-1.9
			c0.7-0.6,1.4-0.9,2.7-0.9c1.1,0,1.9,0.2,2.4,0.5c0.5,0.3,0.7,0.8,0.5,1.7c-0.1,0.7-0.6,1.2-1.5,1.5c-0.5,0.2-1.2,0.3-2.2,0.5
			l-1.9,0.2c-2.2,0.3-4.2,0.7-5.4,1.3c-2.2,1.1-3.7,3-4.2,5.5c-0.4,2-0.1,3.5,0.9,4.6c1,1.1,2.5,1.6,4.4,1.6c1.5,0,3.2-0.3,4.6-1
			c1-0.5,2-1.2,2.9-1.9c0,0.2,0,0.4,0,0.5l0,0.1c0,0.2,0,0.4-0.1,0.6c0,0.3,0,0.6,0,0.9l0,0.1h5.7l0-0.1C64,44.8,64,44.2,64,43.4z
			 M59.7,37.2c-0.4,1.8-1.2,3-2.3,3.7c-1.1,0.7-2.6,1-3.7,1c-0.7,0-1.3-0.2-1.7-0.6c-0.4-0.4-0.5-1-0.3-1.9c0.2-1,0.8-1.8,1.7-2.2
			c0.6-0.3,1.8-0.5,3-0.7l1.2-0.2c0.6-0.1,1.2-0.2,1.5-0.4c0.3-0.1,0.7-0.3,1-0.5L59.7,37.2z"/>
		<path fill="#BF1834" d="M49,12.1c-1.4-1.7-3.3-2.6-5.7-2.6H16.4c-5,0-10,4.1-11.1,9.1L0.2,42.1c-0.5,2.5,0,4.8,1.4,6.5
			c1.4,1.7,3.4,2.6,5.8,2.6h26.9c5,0,10-4.1,11.1-9.1l5.1-23.5C51,16.2,50.4,13.9,49,12.1z M37.7,45.4h-6.2l2.7-12.2H23.5l-2.7,12.2
			h-6.2l5.9-27.2h6.2L24.6,28h10.7l2.1-9.8h6.2L37.7,45.4z"/>
	</g>
	<g>
		<g>
			<g>
				<path fill="#595757" d="M86.1,9h-1.3l0-0.1l1.7-7.8h-3L83.7,0H91l-0.3,1.1h-3L86.1,9z"/>
			</g>
			<g>
				<path fill="#595757" d="M92.7,9.2c-0.5,0-1-0.1-1.4-0.2c-0.4-0.2-0.7-0.4-0.9-0.6c-0.2-0.3-0.4-0.5-0.5-0.9
					c-0.1-0.3-0.1-0.6-0.1-0.9c0-0.6,0.1-1.2,0.3-1.7c0.2-0.5,0.4-1,0.7-1.3c0.3-0.4,0.7-0.7,1.1-0.9c0.4-0.2,0.8-0.3,1.3-0.3
					c1,0,1.7,0.3,2.1,0.8c0.4,0.5,0.7,1.2,0.7,2.1c0,0.2,0,0.3,0,0.5l0,0.1C96,5.9,96,6,96,6.1l0,0.1h-4.8c0,0.2,0,0.3,0,0.5
					c0,0.2,0,0.5,0.1,0.6c0.1,0.2,0.2,0.3,0.4,0.5c0.1,0.1,0.3,0.2,0.5,0.3c0.2,0.1,0.4,0.1,0.6,0.1c0.5,0,0.8-0.1,1.1-0.3
					c0.3-0.2,0.5-0.5,0.7-0.9l0,0h1.2l0,0.1c-0.1,0.4-0.2,0.7-0.4,1c-0.2,0.3-0.4,0.5-0.7,0.7c-0.3,0.2-0.6,0.3-0.9,0.4
					C93.4,9.1,93.1,9.2,92.7,9.2z M91.3,5.1h3.6c0-0.2,0-0.4,0-0.6c0-0.2-0.1-0.4-0.2-0.6c-0.1-0.2-0.3-0.3-0.5-0.4
					c-0.2-0.1-0.4-0.1-0.7-0.1c-0.3,0-0.6,0-0.8,0.1c-0.2,0.1-0.4,0.2-0.6,0.4c-0.2,0.2-0.3,0.4-0.4,0.6C91.5,4.6,91.4,4.8,91.3,5.1
					z"/>
			</g>
			<g>
				<path fill="#595757" d="M100.7,9.2c-0.9,0-1.6-0.2-2-0.7C98.3,7.9,98,7.2,98,6.3c0-0.5,0.1-1,0.2-1.5c0.2-0.5,0.4-0.9,0.7-1.3
					c0.3-0.4,0.7-0.7,1.1-0.9c0.4-0.2,1-0.3,1.6-0.3c0.7,0,1.3,0.2,1.8,0.5c0.4,0.4,0.7,0.9,0.7,1.7l0,0.1H103V4.6
					c0-0.4-0.1-0.7-0.3-0.9c-0.2-0.2-0.5-0.3-1-0.3c-0.4,0-0.7,0.1-1,0.3c-0.3,0.2-0.6,0.4-0.8,0.7c-0.2,0.3-0.4,0.6-0.5,1
					c-0.1,0.3-0.2,0.7-0.2,1c0,0.2,0,0.5,0.1,0.7c0.1,0.2,0.1,0.4,0.3,0.6c0.1,0.2,0.3,0.3,0.5,0.4c0.2,0.1,0.4,0.1,0.7,0.1
					c0.4,0,0.8-0.1,1.1-0.3c0.3-0.2,0.5-0.5,0.7-0.9l0,0h1.2l0,0.1c-0.2,0.7-0.6,1.3-1.1,1.7C102.2,9,101.5,9.2,100.7,9.2z"/>
			</g>
			<g>
				<path fill="#595757" d="M111.1,9H110l0-0.1l0.8-3.8c0-0.1,0-0.1,0-0.2c0-0.1,0-0.2,0-0.2l0,0c0-0.1,0-0.2,0-0.3
					c0-0.1,0-0.2,0-0.2c0-0.3-0.1-0.5-0.3-0.6c-0.2-0.1-0.5-0.2-0.8-0.2c-0.3,0-0.6,0.1-0.8,0.2c-0.3,0.1-0.5,0.3-0.7,0.5
					c-0.2,0.2-0.3,0.4-0.4,0.6c-0.1,0.2-0.2,0.5-0.3,0.7L106.9,9h-1.2l0-0.1l1.9-8.9h1.2l-0.7,3.3c0.2-0.3,0.5-0.5,0.9-0.7
					c0.4-0.2,0.9-0.3,1.3-0.3c0.6,0,1.1,0.1,1.4,0.4c0.3,0.3,0.5,0.7,0.5,1.3c0,0.1,0,0.3,0,0.6c0,0.2-0.1,0.5-0.1,0.7L111.1,9z"/>
			</g>
			<g>
				<path fill="#595757" d="M119.6,9h-1.2l0-0.1l0.8-3.8c0-0.1,0-0.1,0-0.2l0.1-0.3c0-0.1,0-0.2,0-0.2c0-0.1,0-0.2,0-0.2
					c0-0.3-0.1-0.5-0.3-0.6c-0.2-0.1-0.5-0.2-0.8-0.2c-0.3,0-0.6,0.1-0.8,0.2c-0.3,0.1-0.5,0.3-0.7,0.5c-0.2,0.2-0.3,0.4-0.4,0.6
					c-0.1,0.2-0.2,0.5-0.3,0.7L115.3,9h-1.2l0-0.1l1.4-6.5h1.2l-0.2,0.8c0.2-0.3,0.5-0.5,0.9-0.7c0.4-0.2,0.9-0.3,1.3-0.3
					c0.6,0,1.1,0.1,1.4,0.4c0.3,0.3,0.5,0.7,0.5,1.3c0,0.1,0,0.3-0.1,0.6c0,0.2-0.1,0.5-0.1,0.7L119.6,9z"/>
			</g>
			<g>
				<path fill="#595757" d="M125.2,9.2c-0.4,0-0.8-0.1-1.2-0.2c-0.3-0.1-0.6-0.3-0.9-0.6c-0.2-0.2-0.4-0.5-0.6-0.9
					c-0.1-0.3-0.2-0.7-0.2-1.1c0-0.5,0.1-1,0.2-1.5c0.2-0.5,0.4-0.9,0.7-1.3c0.3-0.4,0.7-0.7,1.2-0.9c0.5-0.2,1-0.3,1.5-0.3
					c0.9,0,1.6,0.2,2,0.7c0.5,0.5,0.7,1.1,0.7,2c0,0.5-0.1,1-0.2,1.5c-0.2,0.5-0.4,0.9-0.7,1.3c-0.3,0.4-0.7,0.7-1.1,0.9
					C126.3,9,125.8,9.2,125.2,9.2z M126,3.4c-0.4,0-0.7,0.1-1,0.3c-0.3,0.2-0.6,0.4-0.8,0.7c-0.2,0.3-0.4,0.6-0.5,1
					c-0.1,0.4-0.2,0.7-0.2,1c0,0.5,0.1,0.9,0.4,1.2c0.3,0.3,0.7,0.5,1.3,0.5c0.4,0,0.7-0.1,1-0.3c0.3-0.2,0.5-0.4,0.7-0.7
					c0.2-0.3,0.4-0.6,0.5-1c0.1-0.4,0.2-0.7,0.2-1c0-0.2,0-0.5-0.1-0.7c-0.1-0.2-0.2-0.4-0.3-0.6c-0.1-0.2-0.3-0.3-0.5-0.4
					C126.6,3.4,126.3,3.4,126,3.4z"/>
			</g>
			<g>
				<path fill="#595757" d="M131.6,9h-1.2l0-0.1l1.9-8.9h1.2l0,0.1L131.6,9z"/>
			</g>
			<g>
				<path fill="#595757" d="M137.5,9.2c-0.4,0-0.8-0.1-1.2-0.2c-0.3-0.1-0.6-0.3-0.9-0.6s-0.4-0.5-0.5-0.9c-0.1-0.3-0.2-0.7-0.2-1.1
					c0-0.5,0.1-1,0.2-1.5c0.2-0.5,0.4-0.9,0.7-1.3c0.3-0.4,0.7-0.7,1.2-0.9c0.5-0.2,1-0.3,1.5-0.3c0.9,0,1.6,0.2,2,0.7
					c0.5,0.5,0.8,1.1,0.8,2c0,0.5-0.2,1-0.4,1.5c-0.2,0.5-0.4,0.9-0.7,1.3c-0.3,0.4-0.7,0.7-1.1,0.9C138.6,9,138.1,9.2,137.5,9.2z
					 M138.3,3.4c-0.4,0-0.7,0.1-1,0.3c-0.3,0.2-0.6,0.4-0.8,0.7c-0.2,0.3-0.4,0.6-0.5,1c-0.1,0.4-0.2,0.7-0.2,1
					c0,0.5,0.1,0.9,0.4,1.2c0.3,0.3,0.7,0.5,1.3,0.5c0.4,0,0.7-0.1,1-0.3c0.3-0.2,0.5-0.4,0.7-0.7c0.2-0.3,0.4-0.6,0.5-1
					c0.1-0.4,0.2-0.7,0.2-1c0-0.2,0-0.5-0.1-0.7c-0.1-0.2-0.2-0.4-0.3-0.6c-0.1-0.2-0.3-0.3-0.5-0.4C138.8,3.4,138.6,3.4,138.3,3.4z
					"/>
			</g>
			<g>
				<path fill="#595757" d="M145.4,11.6c-0.3,0-0.7,0-1-0.1c-0.3-0.1-0.6-0.2-0.8-0.4c-0.2-0.2-0.6-0.4-0.7-0.6
					c-0.2-0.3-0.2-0.6-0.2-0.9l0-0.1h1.2l0,0.1c0,0.2,0.1,0.4,0.2,0.5c0.1,0.1,0.2,0.2,0.3,0.3c0.1,0.1,0.3,0.1,0.5,0.2
					c0.2,0,0.4,0,0.6,0c0.4,0,0.7-0.1,1-0.2c0.3-0.1,0.5-0.3,0.6-0.6c0.2-0.2,0.3-0.5,0.4-0.8c0.1-0.2,0.1-0.5,0.2-0.7
					c-0.2,0.2-0.5,0.4-0.7,0.6c-0.4,0.2-0.7,0.2-1.2,0.2c-0.4,0-0.8-0.1-1.1-0.2c-0.3-0.1-0.6-0.3-0.8-0.6c-0.2-0.2-0.4-0.5-0.5-0.9
					c-0.1-0.3-0.2-0.7-0.2-1.1c0-0.5,0.1-1,0.2-1.4c0.2-0.5,0.4-0.9,0.7-1.3c0.3-0.4,0.7-0.7,1.1-0.9c0.4-0.2,0.9-0.4,1.4-0.4
					c0.2,0,0.5,0,0.7,0.1c0.2,0.1,0.4,0.2,0.6,0.3c0.2,0.1,0.4,0.3,0.5,0.4c0.1,0.1,0.2,0.2,0.2,0.4l0.2-1h1.1l0,0.1L148.7,8
					c-0.1,0.3-0.2,0.7-0.2,1c-0.1,0.3-0.2,0.6-0.3,0.8c-0.3,0.7-0.5,1.1-1,1.4C146.7,11.5,146.1,11.6,145.4,11.6z M146.5,3.4
					c-0.4,0-0.7,0.1-0.9,0.3c-0.3,0.2-0.5,0.5-0.7,0.7c-0.2,0.3-0.3,0.6-0.4,1c-0.1,0.3-0.1,0.7-0.1,1c0,0.2,0,0.4,0.1,0.6
					c0.1,0.2,0.2,0.4,0.3,0.5c0.1,0.1,0.3,0.3,0.5,0.4c0.2,0.1,0.4,0.1,0.7,0.1c0.4,0,0.7-0.1,1-0.3c0.3-0.2,0.5-0.4,0.7-0.7
					c0.2-0.3,0.3-0.6,0.4-1c0.1-0.4,0.1-0.7,0.1-1c0-0.5-0.1-0.9-0.4-1.2C147.5,3.5,147.1,3.4,146.5,3.4z"/>
			</g>
			<g>
				<path fill="#595757" d="M151.9,11.6c-0.1,0-0.3,0-0.4,0c-0.1,0-0.3-0.1-0.4-0.1l0,0l0.1-1l0.1,0c0.1,0,0.2,0.1,0.3,0.1
					c0.1,0,0.2,0,0.3,0c0.2,0,0.4-0.1,0.5-0.2c0.1-0.1,0.3-0.3,0.4-0.5l0.6-1l-1.1-6.5h1.3l0,0.1l0.7,5l2.6-5h1.3l-4.3,7.6
					c-0.1,0.2-0.3,0.4-0.4,0.6c-0.1,0.2-0.2,0.4-0.3,0.5c-0.2,0.1-0.3,0.3-0.6,0.3C152.4,11.6,152.2,11.6,151.9,11.6z"/>
			</g>
			<g>
				<path fill="#595757" d="M167.1,9.2c-0.3,0-0.5-0.1-0.7-0.3c-0.1-0.1-0.2-0.3-0.2-0.6c-0.2,0.2-0.5,0.4-0.8,0.6
					c-0.3,0.2-0.8,0.2-1.3,0.2c-0.3,0-0.5,0-0.8-0.1c-0.2-0.1-0.5-0.2-0.6-0.3c-0.2-0.1-0.3-0.3-0.4-0.6c-0.1-0.2-0.2-0.5-0.2-0.9
					c0-0.5,0.1-0.9,0.3-1.1c0.2-0.3,0.5-0.5,0.8-0.6c0.3-0.1,0.7-0.2,1.1-0.3c0.4-0.1,0.8-0.1,1.1-0.1c0.3,0,0.5-0.1,0.7-0.1
					c0.2,0,0.4-0.1,0.5-0.1c0.1-0.1,0.2-0.1,0.3-0.3c0.1-0.1,0.1-0.3,0.1-0.5c0-0.2,0-0.3-0.1-0.4c-0.1-0.1-0.2-0.2-0.3-0.2
					c-0.1-0.1-0.2-0.1-0.4-0.1c-0.4-0.1-0.7,0-1,0c-0.2,0-0.4,0.1-0.5,0.2c-0.2,0.1-0.3,0.2-0.4,0.3c-0.1,0.1-0.2,0.3-0.2,0.5l0,0.1
					h-1.2l0-0.1c0.1-0.4,0.2-0.7,0.3-1c0.2-0.3,0.4-0.5,0.6-0.7c0.3-0.2,0.5-0.3,0.9-0.4c0.6-0.2,1.3-0.2,1.9,0
					c0.3,0,0.5,0.1,0.8,0.3c0.2,0.1,0.4,0.3,0.5,0.5c0.1,0.2,0.2,0.5,0.2,0.8c0,0.2,0,0.4-0.1,0.6c0,0.2-0.1,0.4-0.1,0.6L167.5,7
					c0,0.1-0.1,0.3-0.1,0.5c0,0.2-0.1,0.3-0.1,0.5c0,0.1,0,0.2,0.1,0.3c0.1,0.1,0.2,0.1,0.3,0l0.3-0.1L167.8,9l0,0
					c-0.1,0-0.2,0.1-0.3,0.1C167.3,9.1,167.2,9.2,167.1,9.2z M166.6,5.8c-0.1,0.1-0.3,0.1-0.5,0.2c-0.2,0-0.5,0.1-0.7,0.1
					c-0.3,0-0.5,0.1-0.8,0.1c-0.3,0-0.5,0.1-0.7,0.2c-0.2,0.1-0.4,0.2-0.5,0.3c-0.1,0.1-0.2,0.3-0.2,0.6c0,0.3,0.1,0.5,0.3,0.6
					c0.2,0.1,0.5,0.2,0.8,0.2c0.8,0,1.4-0.3,1.8-0.8c0.2-0.2,0.3-0.5,0.3-0.8C166.5,6.3,166.5,6,166.6,5.8z"/>
			</g>
			<g>
				<path fill="#595757" d="M175.5,9h-1.2l0-0.1l0.8-3.8c0-0.1,0-0.1,0-0.2c0-0.1,0-0.2,0-0.2l0,0c0-0.1,0-0.2,0-0.3
					c0-0.1,0-0.2,0-0.2c0-0.3-0.1-0.5-0.3-0.6c-0.2-0.1-0.5-0.2-0.8-0.2c-0.3,0-0.6,0.1-0.8,0.2c-0.3,0.1-0.5,0.3-0.7,0.5
					c-0.2,0.2-0.3,0.4-0.4,0.6c-0.1,0.2-0.2,0.5-0.3,0.7L171.3,9h-1.2l0-0.1l1.4-6.5h1.2l-0.2,0.8c0.2-0.3,0.5-0.5,0.9-0.7
					c0.4-0.2,0.9-0.3,1.3-0.3c0.6,0,1.1,0.1,1.4,0.4c0.3,0.3,0.5,0.7,0.5,1.3c0,0.1,0,0.3-0.1,0.6c0,0.2-0.1,0.5-0.1,0.7L175.5,9z"
					/>
			</g>
			<g>
				<path fill="#595757" d="M180.9,9.2c-0.4,0-0.8-0.1-1.1-0.2c-0.3-0.1-0.6-0.3-0.8-0.6c-0.2-0.2-0.4-0.5-0.5-0.9
					c-0.1-0.3-0.2-0.7-0.2-1.1c0-0.5,0.1-1,0.2-1.5c0.2-0.5,0.4-0.9,0.7-1.3c0.3-0.4,0.7-0.7,1.1-1c0.5-0.2,1-0.4,1.5-0.4
					c0.2,0,0.4,0,0.6,0.1c0.2,0,0.4,0.1,0.6,0.2c0.2,0.1,0.4,0.2,0.5,0.4c0.1,0.1,0.2,0.2,0.3,0.4l0.7-3.3h1.2l0,0.1L183.9,9h-1.1
					l0.2-0.8c-0.3,0.3-0.6,0.5-0.9,0.7C181.8,9.1,181.4,9.2,180.9,9.2z M182,3.4c-0.4,0-0.8,0.1-1.1,0.3c-0.3,0.2-0.6,0.4-0.8,0.7
					c-0.2,0.3-0.4,0.6-0.5,1c-0.1,0.4-0.2,0.7-0.2,1.1c0,0.5,0.1,0.9,0.4,1.2c0.2,0.3,0.7,0.4,1.2,0.4c0.4,0,0.7-0.1,1-0.3
					c0.3-0.2,0.6-0.5,0.8-0.8c0.2-0.3,0.4-0.7,0.5-1c0.1-0.4,0.2-0.7,0.2-1c0-0.5-0.1-0.9-0.4-1.2C182.9,3.5,182.5,3.4,182,3.4z"/>
			</g>
			<g>
				<path fill="#595757" d="M194.6,9h-4.5l0-0.1L192,0h3.6c0.9,0,1.5,0.2,1.9,0.6c0.4,0.4,0.6,0.9,0.6,1.6c0,0.3,0,0.5-0.1,0.7
					c-0.1,0.2-0.2,0.5-0.3,0.7c-0.1,0.2-0.3,0.4-0.5,0.5c-0.2,0.1-0.3,0.2-0.5,0.2c0.3,0.1,0.6,0.3,0.8,0.6c0.2,0.3,0.4,0.7,0.4,1.2
					c0,0.4-0.1,0.8-0.3,1.2c-0.2,0.3-0.4,0.6-0.7,0.9c-0.3,0.2-0.6,0.4-1,0.6C195.5,9,195,9,194.6,9z M191.6,7.9h2.8
					c0.1,0,0.3,0,0.6,0c0.2,0,0.5-0.1,0.7-0.2c0.2-0.1,0.4-0.3,0.6-0.5c0.2-0.2,0.2-0.5,0.2-0.9c0-0.3,0-0.5-0.1-0.7
					c-0.1-0.2-0.2-0.3-0.4-0.4c-0.2-0.1-0.4-0.1-0.6-0.2c-0.2,0-0.4,0-0.7,0h-2.5L191.6,7.9z M192.5,3.8h2.6c1.2,0,1.8-0.5,1.8-1.6
					c0-0.3-0.1-0.4-0.2-0.6c-0.1-0.1-0.2-0.2-0.4-0.3c-0.2-0.1-0.4-0.1-0.5-0.1c-0.2,0-0.4,0-0.6,0H193L192.5,3.8z"/>
			</g>
			<g>
				<path fill="#595757" d="M202.6,9.2c-0.5,0-1-0.1-1.4-0.2c-0.4-0.2-0.7-0.4-0.9-0.6c-0.2-0.3-0.4-0.5-0.4-0.9
					c-0.1-0.3-0.1-0.6-0.1-0.9c0-0.6,0.1-1.2,0.3-1.7c0.2-0.5,0.4-1,0.7-1.3c0.3-0.4,0.7-0.7,1.1-0.9c0.4-0.2,0.8-0.3,1.3-0.3
					c1,0,1.7,0.3,2.1,0.8c0.4,0.5,0.7,1.2,0.7,2.1c0,0.2,0,0.3,0,0.5c0,0.1,0,0.3-0.1,0.4l0,0.1H201c0,0.2,0,0.3,0,0.5
					c0,0.2,0,0.5,0.1,0.6c0.1,0.2,0.2,0.3,0.4,0.5c0.2,0.1,0.3,0.2,0.5,0.3c0.2,0.1,0.4,0.1,0.6,0.1c0.5,0,0.8-0.1,1.1-0.3
					c0.3-0.2,0.5-0.5,0.7-0.9l0,0h1.2l0,0.1c-0.1,0.4-0.2,0.7-0.4,1c-0.2,0.3-0.4,0.5-0.7,0.7c-0.3,0.2-0.6,0.3-0.9,0.4
					C203.3,9.1,202.9,9.2,202.6,9.2z M201.2,5.1h3.6c0-0.2,0-0.4,0-0.6c0-0.2-0.1-0.4-0.2-0.6c-0.1-0.2-0.3-0.3-0.5-0.4
					c-0.2-0.1-0.4-0.1-0.7-0.1c-0.3,0-0.6,0-0.8,0.1c-0.2,0.1-0.4,0.2-0.6,0.4c-0.2,0.2-0.3,0.4-0.4,0.6
					C201.4,4.6,201.3,4.8,201.2,5.1z"/>
			</g>
			<g>
				<path fill="#595757" d="M207.7,11.6c-0.1,0-0.3,0-0.4,0c-0.1,0-0.3-0.1-0.4-0.1l0,0l0.2-1l0.1,0c0.1,0,0.2,0.1,0.3,0.1
					c0.1,0,0.2,0,0.3,0c0.2,0,0.4-0.1,0.5-0.2c0.1-0.1,0.3-0.3,0.4-0.5l0.6-1l-1.1-6.5h1.3l0,0.1l0.7,5l2.6-5h1.3l-4.3,7.6
					c-0.1,0.2-0.3,0.4-0.4,0.6c-0.1,0.2-0.3,0.4-0.4,0.5c-0.2,0.1-0.3,0.3-0.6,0.3C208.2,11.6,207.9,11.6,207.7,11.6z"/>
			</g>
			<g>
				<path fill="#595757" d="M217.5,9.2c-0.4,0-0.8-0.1-1.2-0.2c-0.3-0.1-0.6-0.3-0.9-0.6c-0.2-0.2-0.4-0.5-0.5-0.9
					c-0.1-0.3-0.2-0.7-0.2-1.1c0-0.5,0.1-1,0.2-1.5c0.2-0.5,0.4-0.9,0.7-1.3c0.3-0.4,0.7-0.7,1.2-0.9c0.5-0.2,1-0.3,1.5-0.3
					c0.9,0,1.6,0.2,2,0.7c0.5,0.5,0.7,1.1,0.7,2c0,0.5-0.1,1-0.2,1.5c-0.2,0.5-0.4,0.9-0.7,1.3c-0.3,0.4-0.7,0.7-1.1,0.9
					C218.5,9,218,9.2,217.5,9.2z M218.3,3.4c-0.4,0-0.7,0.1-1,0.3c-0.3,0.2-0.6,0.4-0.8,0.7c-0.2,0.3-0.4,0.6-0.5,1
					c-0.1,0.4-0.2,0.7-0.2,1c0,0.5,0.1,0.9,0.4,1.2c0.3,0.3,0.7,0.5,1.3,0.5c0.4,0,0.7-0.1,1-0.3c0.3-0.2,0.5-0.4,0.7-0.7
					c0.2-0.3,0.4-0.6,0.5-1c0.1-0.4,0.2-0.7,0.2-1c0-0.2,0-0.5-0.1-0.7c-0.1-0.2-0.2-0.4-0.3-0.6c-0.1-0.2-0.3-0.3-0.5-0.4
					C218.8,3.4,218.5,3.4,218.3,3.4z"/>
			</g>
			<g>
				<path fill="#595757" d="M228.1,9h-1.2l0-0.1l0.8-3.8c0-0.1,0-0.1,0-0.2c0-0.1,0-0.2,0-0.2l0,0c0-0.1,0-0.2,0-0.3
					c0-0.1,0-0.2,0-0.2c0-0.3-0.1-0.5-0.3-0.6c-0.2-0.1-0.5-0.2-0.8-0.2c-0.3,0-0.6,0.1-0.8,0.2c-0.3,0.1-0.5,0.3-0.7,0.5
					c-0.2,0.2-0.3,0.4-0.4,0.6c-0.1,0.2-0.2,0.5-0.3,0.7L223.8,9h-1.2l0-0.1l1.4-6.5h1.2L225,3.3c0.2-0.3,0.5-0.5,0.9-0.7
					c0.4-0.2,0.9-0.3,1.3-0.3c0.6,0,1.1,0.1,1.4,0.4C228.9,3,229,3.4,229,4c0,0.1,0,0.3,0,0.6c0,0.2-0.1,0.5-0.1,0.7L228.1,9z"/>
			</g>
			<g>
				<path fill="#595757" d="M233.5,9.2c-0.4,0-0.8-0.1-1.1-0.2c-0.3-0.1-0.6-0.3-0.8-0.6c-0.2-0.2-0.4-0.5-0.5-0.9
					c-0.1-0.3-0.2-0.7-0.2-1.1c0-0.5,0.1-1,0.2-1.5c0.2-0.5,0.4-0.9,0.7-1.3c0.3-0.4,0.7-0.7,1.1-1c0.5-0.2,1-0.4,1.5-0.4
					c0.2,0,0.4,0,0.6,0.1c0.2,0,0.4,0.1,0.6,0.2c0.2,0.1,0.4,0.2,0.5,0.4c0.1,0.1,0.2,0.2,0.3,0.4l0.7-3.3h1.2l0,0.1L236.5,9h-1.1
					l0.2-0.8c-0.3,0.3-0.6,0.5-0.9,0.7C234.4,9.1,234,9.2,233.5,9.2z M234.6,3.4c-0.4,0-0.8,0.1-1.1,0.3c-0.3,0.2-0.6,0.4-0.8,0.7
					c-0.2,0.3-0.4,0.6-0.5,1c-0.1,0.4-0.2,0.7-0.2,1.1c0,0.5,0.1,0.9,0.4,1.2c0.2,0.3,0.7,0.4,1.2,0.4c0.4,0,0.7-0.1,1-0.3
					c0.3-0.2,0.6-0.5,0.8-0.8c0.2-0.3,0.4-0.7,0.5-1c0.1-0.4,0.2-0.7,0.2-1c0-0.5-0.1-0.9-0.4-1.2C235.5,3.5,235.1,3.4,234.6,3.4z"
					/>
			</g>
		</g>
	</g>
</g>
<g>
</g>
<g>
</g>
<g>
</g>
<g>
</g>
<g>
</g>
<g>
</g>
<g>
</g>
<g>
</g>
<g>
</g>
<g>
</g>
<g>
</g>
<g>
</g>
<g>
</g>
<g>
</g>
<g>
</g>
</svg>
