<svg id="Layer_1" data-name="Layer 1" xmlns="http://www.w3.org/2000/svg" viewBox="0 0 200 49.27"><defs><style>.cls-1{fill:#fff;}.cls-2{fill:#004478;}.cls-3{fill:#bf1834;}.cls-4{fill:#595757;}</style></defs><path class="cls-1" d="M246.18,132.74H61.53a4,4,0,0,1-4-4.73L64.85,86.8a4,4,0,0,1,4-3.32H253.47a4,4,0,0,1,4,4.73l-7.29,41.21A4,4,0,0,1,246.18,132.74Z" transform="translate(-57.5 -83.48)"/><g id="_.svg" data-name=".svg"><path class="cls-2" d="M173.26,123.21c-2.77,0-4.46-.79-5.08-2.29a10.21,10.21,0,0,1-.07-6.15l.07-.55h4.39l-.15.55a10,10,0,0,0-.23,3.55c.15.71.69,1,1.69,1a2.4,2.4,0,0,0,2.16-1.1,7.15,7.15,0,0,0,.77-2.21l3.08-14.5h4.61L181.43,116a11.07,11.07,0,0,1-1.85,4.5A7.55,7.55,0,0,1,173.26,123.21Z" transform="translate(-57.5 -83.48)"/><path class="cls-2" d="M197.44,129l4.85-22.78h4.16l-.47,2.28a7.09,7.09,0,0,1,1.7-1.49,6.54,6.54,0,0,1,3.62-1.11,5,5,0,0,1,4.38,2.13c1,1.42,1.24,3.55.62,6.23a12.18,12.18,0,0,1-3.31,6.54,7.92,7.92,0,0,1-5.47,2.29,4.32,4.32,0,0,1-3-.95,4.17,4.17,0,0,1-1-1.42l-1.77,8.36h-4.31Zm11.78-19.31a4,4,0,0,0-3.54,2.12,9,9,0,0,0-1.08,2.92c-.39,1.89-.16,3.15.61,3.94a2.6,2.6,0,0,0,1.93.63,3.8,3.8,0,0,0,2.92-1.34,7.88,7.88,0,0,0,1.7-3.62,5.86,5.86,0,0,0-.16-3.31A2.32,2.32,0,0,0,209.22,109.73Z" transform="translate(-57.5 -83.48)"/><path class="cls-2" d="M242.32,122.65l2.08-9.93a4.51,4.51,0,0,0,.08-2c-.23-.79-.85-1.18-2-1.18a3.7,3.7,0,0,0-3.24,1.81,9,9,0,0,0-.92,2.45l-1.85,8.82h-4.31l3.46-16.31h4.16l-.46,2.2a8,8,0,0,1,1.77-1.65,6.5,6.5,0,0,1,3.54-1,5.15,5.15,0,0,1,3.77,1.34c.85.87,1.08,2.37.7,4.42l-2.31,11Z" transform="translate(-57.5 -83.48)"/><path class="cls-2" d="M230,121.16c0-.24.08-.56.08-1v-.08c.08-.31.08-.55.15-.87L232,111c.46-2,0-3.39-1.24-4.1a8.72,8.72,0,0,0-4.46-1.11,8.6,8.6,0,0,0-6.24,2.13,7.9,7.9,0,0,0-1.92,3.55v.08h4.16v-.08a4.06,4.06,0,0,1,.92-1.5,3.19,3.19,0,0,1,2.23-.71,3.92,3.92,0,0,1,1.93.4c.38.23.54.63.38,1.34a1.5,1.5,0,0,1-1.15,1.18,10.46,10.46,0,0,1-1.7.39l-1.46.16a12.83,12.83,0,0,0-3.93,1,6,6,0,0,0-3.23,4.33,4,4,0,0,0,.69,3.63,4.34,4.34,0,0,0,3.39,1.26,6.55,6.55,0,0,0,3.23-.79,14.12,14.12,0,0,0,2.24-1.5.6.6,0,0,1-.08.4v1.34h4.39v-.08C229.93,122.26,229.93,121.79,230,121.16Zm-3.38-4.89a4.45,4.45,0,0,1-1.77,2.92,4.88,4.88,0,0,1-2.7.78,1.77,1.77,0,0,1-1.31-.47,1.55,1.55,0,0,1-.23-1.5,2.34,2.34,0,0,1,1.31-1.73,6.75,6.75,0,0,1,2-.55l1-.16a3.46,3.46,0,0,0,1.16-.32,3.1,3.1,0,0,0,.77-.39Z" transform="translate(-57.5 -83.48)"/><path class="cls-2" d="M196.67,121.16c0-.24.08-.56.08-1v-.08c.07-.31.07-.55.15-.87l1.77-8.27c.46-2,0-3.39-1.23-4.1a8.76,8.76,0,0,0-4.47-1.11,8.57,8.57,0,0,0-6.23,2.13,7.91,7.91,0,0,0-1.93,3.55v.08H189v-.08a4.2,4.2,0,0,1,.92-1.5,3.22,3.22,0,0,1,2.24-.71,3.87,3.87,0,0,1,1.92.4c.39.23.54.63.39,1.34a1.51,1.51,0,0,1-1.16,1.18,10,10,0,0,1-1.69.39l-1.47.16a12.68,12.68,0,0,0-3.92,1,6,6,0,0,0-3.23,4.33,4,4,0,0,0,.69,3.63,4.33,4.33,0,0,0,3.39,1.26,6.57,6.57,0,0,0,3.23-.79,13.6,13.6,0,0,0,2.23-1.5.6.6,0,0,1-.08.4v1.34h4.39v-.08C196.59,122.26,196.59,121.79,196.67,121.16Zm-3.39-4.89a4.41,4.41,0,0,1-1.77,2.92,4.87,4.87,0,0,1-2.69.78,1.77,1.77,0,0,1-1.31-.47,1.53,1.53,0,0,1-.23-1.5,2.29,2.29,0,0,1,1.31-1.73,7.46,7.46,0,0,1,2-.55l1-.16a3.4,3.4,0,0,0,1.15-.32,3.1,3.1,0,0,0,.77-.39Z" transform="translate(-57.5 -83.48)"/><path class="cls-3" d="M115.83,129l4.85-22.78h4.16l-.46,2.28a7.06,7.06,0,0,1,1.69-1.49,6.54,6.54,0,0,1,3.62-1.11,5.12,5.12,0,0,1,4.39,2.13c1,1.42,1.23,3.55.69,6.23a12.11,12.11,0,0,1-3.31,6.54,7.92,7.92,0,0,1-5.46,2.29,4.35,4.35,0,0,1-3-.95,4.17,4.17,0,0,1-1-1.42l-1.77,8.36h-4.39Zm11.78-19.31a3.92,3.92,0,0,0-3.54,2.12,9.23,9.23,0,0,0-1.08,2.92c-.38,1.89-.15,3.15.62,3.94a2.56,2.56,0,0,0,1.92.63,3.81,3.81,0,0,0,2.93-1.34,7.88,7.88,0,0,0,1.69-3.62,6,6,0,0,0-.15-3.31A2.35,2.35,0,0,0,127.61,109.73Z" transform="translate(-57.5 -83.48)"/><path class="cls-3" d="M133.31,129l4.85-22.78h4.16l-.47,2.28a7.09,7.09,0,0,1,1.7-1.49,6.54,6.54,0,0,1,3.62-1.11,5.12,5.12,0,0,1,4.38,2.13c1,1.42,1.24,3.55.7,6.23a12.24,12.24,0,0,1-3.31,6.54,7.8,7.8,0,0,1-5.47,2.29,4.3,4.3,0,0,1-3-.95,4,4,0,0,1-1-1.42l-1.77,8.36h-4.39Zm11.78-19.31a4.12,4.12,0,0,0-3.62,2.12,9.23,9.23,0,0,0-1.08,2.92c-.38,1.89-.15,3.15.62,3.94a2.56,2.56,0,0,0,1.92.63,3.81,3.81,0,0,0,2.93-1.34,7.88,7.88,0,0,0,1.69-3.62,6,6,0,0,0-.15-3.31A2.17,2.17,0,0,0,145.09,109.73Z" transform="translate(-57.5 -83.48)"/><path class="cls-3" d="M165.18,106.26l-5.77,11.82-.93-11.82h-4.77l2.31,17a4,4,0,0,1-.46,1,2.94,2.94,0,0,1-.85,1,2.11,2.11,0,0,1-1,.32c-.31,0-.54.08-.85.08h-.92l-.77,3.55h.08c.46,0,.77.07,1,.07h.92a6.09,6.09,0,0,0,4-1.1,31.77,31.77,0,0,0,3.78-5.75l8.93-16.08h-4.7Z" transform="translate(-57.5 -83.48)"/><path class="cls-3" d="M115,121.16c0-.24.07-.56.07-1v-.08c.08-.31.08-.55.16-.87L117,111c.38-2,0-3.39-1.23-4.1a8.78,8.78,0,0,0-4.47-1.11c-2.69,0-4.62.71-6,2.13a7.91,7.91,0,0,0-1.93,3.55v.08h4.16v-.08a4.2,4.2,0,0,1,.92-1.5,2.8,2.8,0,0,1,2.08-.71,3.57,3.57,0,0,1,1.85.4c.38.23.54.63.38,1.34a1.48,1.48,0,0,1-1.15,1.18,10.46,10.46,0,0,1-1.7.39l-1.46.16a14.6,14.6,0,0,0-4.16,1,6,6,0,0,0-3.23,4.33,4,4,0,0,0,.69,3.63,4.34,4.34,0,0,0,3.39,1.26,8,8,0,0,0,3.54-.79,14.12,14.12,0,0,0,2.24-1.5v.48a1,1,0,0,1-.08.47v.79h4.39v-.08C115,122.26,115,121.79,115,121.16Zm-3.31-4.89a4.42,4.42,0,0,1-1.78,2.92,5.54,5.54,0,0,1-2.84.78,1.77,1.77,0,0,1-1.31-.47,1.53,1.53,0,0,1-.23-1.5,2.29,2.29,0,0,1,1.31-1.73,9.45,9.45,0,0,1,2.3-.55l.93-.16a3.4,3.4,0,0,0,1.15-.32,3.1,3.1,0,0,0,.77-.39Z" transform="translate(-57.5 -83.48)"/><path class="cls-3" d="M103.44,96.48a5.37,5.37,0,0,0-4.39-2H78.34a9.33,9.33,0,0,0-8.55,7.18l-3.92,18.52A6.1,6.1,0,0,0,67,125.25a5.49,5.49,0,0,0,4.46,2H92.12a9.32,9.32,0,0,0,8.55-7.17l3.92-18.52A6.28,6.28,0,0,0,103.44,96.48Zm-8.7,26.25H90L92,113.12H83.81l-2.08,9.61H77l4.55-21.44h4.77L84.65,109h8.24l1.62-7.73h4.77Z" transform="translate(-57.5 -83.48)"/><path class="cls-4" d="M132,94h-1V94l1.31-6.15H130l.15-.86h5.62l-.23.86h-2.31Z" transform="translate(-57.5 -83.48)"/><path class="cls-4" d="M137.08,94.2A4.45,4.45,0,0,1,136,94a3,3,0,0,1-.69-.47,2.11,2.11,0,0,1-.38-.71,2.18,2.18,0,0,1-.08-.71,3.8,3.8,0,0,1,.23-1.34,3.12,3.12,0,0,1,.54-1,2.49,2.49,0,0,1,.85-.71,2.14,2.14,0,0,1,1-.23,1.92,1.92,0,0,1,1.61.63,2.6,2.6,0,0,1,.54,1.65v.71h-3.69v.4a1,1,0,0,0,.07.47,1.36,1.36,0,0,0,.31.39,1.65,1.65,0,0,0,.39.24.92.92,0,0,0,.46.08,1.33,1.33,0,0,0,.84-.24,1.55,1.55,0,0,0,.54-.71h.93v.08a2.56,2.56,0,0,1-.31.79,1.77,1.77,0,0,1-.54.55,2.67,2.67,0,0,1-.69.32A3,3,0,0,0,137.08,94.2ZM136,91h2.77v-.48a1.08,1.08,0,0,0-.15-.47.79.79,0,0,0-.38-.32,1.27,1.27,0,0,0-.54-.07,1.68,1.68,0,0,0-.62.07,1.6,1.6,0,0,0-.46.32,1.81,1.81,0,0,0-.31.47A.76.76,0,0,0,136,91Z" transform="translate(-57.5 -83.48)"/><path class="cls-4" d="M143.24,94.2a1.88,1.88,0,0,1-1.54-.55,3.1,3.1,0,0,1-.54-1.74,6,6,0,0,1,.16-1.18,4.17,4.17,0,0,1,.53-1,2.58,2.58,0,0,1,.85-.71,3,3,0,0,1,1.23-.23,2.7,2.7,0,0,1,1.39.39,1.79,1.79,0,0,1,.54,1.34v.08H145a1,1,0,0,0-.23-.71,1,1,0,0,0-.77-.23,1.25,1.25,0,0,0-.77.23,2.34,2.34,0,0,0-.62.55,3.23,3.23,0,0,0-.53,1.58,1.49,1.49,0,0,0,.07.55c.08.16.08.32.23.48a.81.81,0,0,0,.39.31,1.1,1.1,0,0,0,.54.08,1.5,1.5,0,0,0,.84-.24,1.62,1.62,0,0,0,.54-.71h.93v.08a2.73,2.73,0,0,1-.85,1.34A4.06,4.06,0,0,1,143.24,94.2Z" transform="translate(-57.5 -83.48)"/><path class="cls-4" d="M151.25,94h-.85V94l.62-3v-.32h0v-.39a.48.48,0,0,0-.24-.48,1.37,1.37,0,0,0-.61-.15,1.65,1.65,0,0,0-1.16.55,1.43,1.43,0,0,0-.3.47c-.08.16-.16.39-.23.55L148,94h-.92V94l1.46-7h.93l-.54,2.6a1.64,1.64,0,0,1,.69-.56,2.43,2.43,0,0,1,1-.23,1.52,1.52,0,0,1,1.08.31,1.4,1.4,0,0,1,.38,1v.47c0,.16-.07.4-.07.55Z" transform="translate(-57.5 -83.48)"/><path class="cls-4" d="M157.79,94h-.92V94l.61-3v-.16l.08-.24v-.31a.5.5,0,0,0-.23-.48,1.45,1.45,0,0,0-.62-.15,1.65,1.65,0,0,0-1.15.55,1.47,1.47,0,0,0-.31.47c-.08.16-.15.39-.23.55L154.48,94h-.92V94l1.07-5.12h.93l-.16.63a1.64,1.64,0,0,1,.7-.55,2.26,2.26,0,0,1,1-.24,1.53,1.53,0,0,1,1.08.31,1.4,1.4,0,0,1,.38,1,1.33,1.33,0,0,1-.08.47c0,.16-.07.4-.07.55Z" transform="translate(-57.5 -83.48)"/><path class="cls-4" d="M162.1,94.2a3.7,3.7,0,0,1-.92-.16,1.89,1.89,0,0,1-.69-.47,2.9,2.9,0,0,1-.47-.71,3.15,3.15,0,0,1-.15-.87,6.8,6.8,0,0,1,.15-1.18,4.56,4.56,0,0,1,.54-1,2.15,2.15,0,0,1,.93-.71,3.14,3.14,0,0,1,1.15-.23,1.84,1.84,0,0,1,1.54.55,2,2,0,0,1,.54,1.58,6.93,6.93,0,0,1-.15,1.18,4.49,4.49,0,0,1-.54,1,2.38,2.38,0,0,1-.85.71A2,2,0,0,1,162.1,94.2Zm.62-4.57a1.25,1.25,0,0,0-.77.23,2.34,2.34,0,0,0-.62.55,2.52,2.52,0,0,0-.38.79,3.45,3.45,0,0,0-.16.79,1.3,1.3,0,0,0,.31,1,1.34,1.34,0,0,0,1,.39,1.26,1.26,0,0,0,.77-.24,1.67,1.67,0,0,0,.54-.55,2.54,2.54,0,0,0,.39-.79A3.9,3.9,0,0,0,164,91a1.36,1.36,0,0,0-.08-.56l-.23-.47a.72.72,0,0,0-.38-.31Z" transform="translate(-57.5 -83.48)"/><path class="cls-4" d="M167,94h-.92V94l1.46-7h.92V87Z" transform="translate(-57.5 -83.48)"/><path class="cls-4" d="M171.57,94.2a3.7,3.7,0,0,1-.92-.16,2,2,0,0,1-.7-.47,1.34,1.34,0,0,1-.38-.71,2.82,2.82,0,0,1-.15-.87,6,6,0,0,1,.15-1.18,4.19,4.19,0,0,1,.54-1,2.18,2.18,0,0,1,.92-.71,3.19,3.19,0,0,1,1.16-.23,1.84,1.84,0,0,1,1.54.55,2.11,2.11,0,0,1,.61,1.58,3.29,3.29,0,0,1-.31,1.18,4.1,4.1,0,0,1-.53,1,2.47,2.47,0,0,1-.85.71A2,2,0,0,1,171.57,94.2Zm.62-4.57a1.25,1.25,0,0,0-.77.23,2.34,2.34,0,0,0-.62.55,2.52,2.52,0,0,0-.38.79,3.45,3.45,0,0,0-.16.79,1.3,1.3,0,0,0,.31,1,1.34,1.34,0,0,0,1,.39,1.26,1.26,0,0,0,.77-.24,1.67,1.67,0,0,0,.54-.55,2.32,2.32,0,0,0,.38-.79,3.38,3.38,0,0,0,.16-.78,1.36,1.36,0,0,0-.08-.56l-.23-.47a.72.72,0,0,0-.38-.31Z" transform="translate(-57.5 -83.48)"/><path class="cls-4" d="M177.65,96.09a2.53,2.53,0,0,1-.77-.08,1.6,1.6,0,0,1-.61-.31c-.16-.16-.46-.32-.54-.48a1.14,1.14,0,0,1-.16-.71v-.08h.93v.08a.66.66,0,0,0,.15.4l.23.23c.08.08.23.08.39.16h.46a2.19,2.19,0,0,0,.77-.16.7.7,0,0,0,.46-.47,1.55,1.55,0,0,0,.31-.63c.08-.16.08-.39.15-.55-.15.16-.38.31-.54.47a1.71,1.71,0,0,1-.92.16,2.73,2.73,0,0,1-.85-.16,1.21,1.21,0,0,1-.61-.47,1.55,1.55,0,0,1-.39-.71,3.15,3.15,0,0,1-.15-.87,5.13,5.13,0,0,1,.15-1.1,4.56,4.56,0,0,1,.54-1,2.49,2.49,0,0,1,.85-.71,2.56,2.56,0,0,1,1.08-.31,1.29,1.29,0,0,1,.54.08l.46.23a1.59,1.59,0,0,1,.38.32.41.41,0,0,1,.16.31l.15-.78h.85V89l-.93,4.26A3.15,3.15,0,0,0,180,94a5.43,5.43,0,0,1-.23.63,2,2,0,0,1-.77,1.1A2.58,2.58,0,0,1,177.65,96.09Zm.85-6.46a.9.9,0,0,0-.69.23,4,4,0,0,0-.54.55,2.42,2.42,0,0,0-.31.79,2.66,2.66,0,0,0-.08.79,1,1,0,0,0,.08.47,1.76,1.76,0,0,0,.23.4,1.66,1.66,0,0,0,.39.31,1.06,1.06,0,0,0,.53.08,1.32,1.32,0,0,0,.77-.23,1.7,1.7,0,0,0,.54-.56,2.25,2.25,0,0,0,.31-.79,2.86,2.86,0,0,0,.08-.78,1.29,1.29,0,0,0-.31-1A1.27,1.27,0,0,0,178.5,89.63Z" transform="translate(-57.5 -83.48)"/><path class="cls-4" d="M182.66,96.09h-.31c-.08,0-.23-.08-.31-.08h0l.08-.79h.08c.07,0,.15.08.23.08h.23a.56.56,0,0,0,.38-.16,1.66,1.66,0,0,0,.31-.39l.46-.79L183,88.84h1v.08l.53,3.94,2-3.94h1l-3.31,6c-.08.15-.23.31-.31.47a1.48,1.48,0,0,1-.23.39c-.16.08-.23.24-.46.24A1.12,1.12,0,0,1,182.66,96.09Z" transform="translate(-57.5 -83.48)"/><path class="cls-4" d="M194.36,94.2a.68.68,0,0,1-.54-.24.67.67,0,0,1-.15-.47,4.77,4.77,0,0,1-.62.47,1.9,1.9,0,0,1-1,.16,1.66,1.66,0,0,1-.62-.08,2.76,2.76,0,0,1-.46-.24.74.74,0,0,1-.31-.47,1.71,1.71,0,0,1-.15-.71,1.33,1.33,0,0,1,.23-.87,1.23,1.23,0,0,1,.62-.47c.23-.08.54-.16.84-.24a3.83,3.83,0,0,1,.85-.07c.23,0,.39-.08.54-.08a3,3,0,0,0,.38-.08c.08-.08.16-.08.24-.24a.65.65,0,0,0,.07-.39c0-.16,0-.24-.07-.32s-.16-.16-.24-.16-.15-.07-.3-.07a2.47,2.47,0,0,0-.77,0,.58.58,0,0,0-.39.15,1.19,1.19,0,0,0-.31.24.66.66,0,0,0-.15.39v.08h-.92v-.08a6.82,6.82,0,0,1,.23-.78,3,3,0,0,1,.46-.56,2,2,0,0,1,.69-.31,2.28,2.28,0,0,1,1.46,0,1,1,0,0,1,.62.23,1,1,0,0,1,.39.4,1.62,1.62,0,0,1,.15.63,1,1,0,0,1-.08.47c0,.16-.07.32-.07.48l-.31,1.49a3.46,3.46,0,0,0-.08.4c0,.16-.08.23-.08.39a.29.29,0,0,0,.08.24.14.14,0,0,0,.23,0l.23-.08-.15.63h0c-.08,0-.16.08-.23.08S194.44,94.2,194.36,94.2ZM194,91.52c-.07.08-.23.08-.38.15s-.39.08-.54.08-.38.08-.62.08a1,1,0,0,0-.53.16,1.65,1.65,0,0,0-.39.24.65.65,0,0,0-.15.47.46.46,0,0,0,.23.47,1.37,1.37,0,0,0,.61.16,1.69,1.69,0,0,0,1.39-.63.92.92,0,0,0,.23-.63C193.9,91.91,193.9,91.67,194,91.52Z" transform="translate(-57.5 -83.48)"/><path class="cls-4" d="M200.83,94h-.93V94l.62-3v-.32h0v-.39a.5.5,0,0,0-.23-.48,1.45,1.45,0,0,0-.62-.15,1.37,1.37,0,0,0-.61.15,1.3,1.3,0,0,0-.54.4,1.47,1.47,0,0,0-.31.47c-.08.16-.16.39-.23.55L197.59,94h-.92V94l1.08-5.12h.92l-.15.63a1.55,1.55,0,0,1,.69-.55,2.29,2.29,0,0,1,1-.24,1.52,1.52,0,0,1,1.08.31,1.4,1.4,0,0,1,.38,1,1.51,1.51,0,0,1-.07.47c0,.16-.08.4-.08.55Z" transform="translate(-57.5 -83.48)"/><path class="cls-4" d="M205,94.2a2.67,2.67,0,0,1-.84-.16,1.23,1.23,0,0,1-.62-.47,1.54,1.54,0,0,1-.38-.71A2.81,2.81,0,0,1,203,92a6,6,0,0,1,.16-1.18,4.17,4.17,0,0,1,.53-1,4.56,4.56,0,0,1,.85-.79,3.34,3.34,0,0,1,1.16-.31,1,1,0,0,1,.46.08,1.06,1.06,0,0,1,.46.16.69.69,0,0,1,.38.31,1.1,1.1,0,0,1,.24.32l.53-2.6h.93V87l-1.39,7h-.84l.15-.63a4.15,4.15,0,0,1-.69.55A1.6,1.6,0,0,1,205,94.2Zm.85-4.57a1.51,1.51,0,0,0-.85.23,2.15,2.15,0,0,0-.61.55,2.54,2.54,0,0,0-.39.79,3.78,3.78,0,0,0-.15.87,1.3,1.3,0,0,0,.31,1,1.12,1.12,0,0,0,.92.31,1.26,1.26,0,0,0,.77-.24,2.33,2.33,0,0,0,.62-.63,3.81,3.81,0,0,0,.38-.79,3.3,3.3,0,0,0,.15-.78,1.28,1.28,0,0,0-.3-1A.94.94,0,0,0,205.83,89.63Z" transform="translate(-57.5 -83.48)"/><path class="cls-4" d="M215.53,94h-3.46V94l1.46-7h2.77a1.9,1.9,0,0,1,1.46.47,1.67,1.67,0,0,1,.47,1.26,1.14,1.14,0,0,1-.08.55c-.08.16-.16.4-.23.55a.94.94,0,0,1-.39.4.76.76,0,0,1-.38.15,1.18,1.18,0,0,1,.61.48,1.64,1.64,0,0,1,.31.94,2.21,2.21,0,0,1-.23,1,4.17,4.17,0,0,1-.54.71,6.5,6.5,0,0,1-.77.47A2.19,2.19,0,0,1,215.53,94Zm-2.31-.87h2.62a1.63,1.63,0,0,0,.54-.15,2.05,2.05,0,0,0,.46-.4c.15-.16.15-.39.15-.71a1.29,1.29,0,0,0-.07-.55.64.64,0,0,0-.31-.32c-.16-.07-.31-.07-.46-.15h-2.47Zm.69-3.23h2c.92,0,1.38-.39,1.38-1.26a.87.87,0,0,0-.15-.47,1.19,1.19,0,0,0-.31-.24.81.81,0,0,0-.39-.08H214.3Z" transform="translate(-57.5 -83.48)"/><path class="cls-4" d="M221.69,94.2a4.38,4.38,0,0,1-1.08-.16,2.81,2.81,0,0,1-.69-.47,1.18,1.18,0,0,1-.31-.71,2.18,2.18,0,0,1-.08-.71,3.8,3.8,0,0,1,.23-1.34,3.32,3.32,0,0,1,.54-1,2.49,2.49,0,0,1,.85-.71,2.2,2.2,0,0,1,1-.23,1.94,1.94,0,0,1,1.62.63,2.6,2.6,0,0,1,.54,1.65v.4a.45.45,0,0,1-.08.31v.08h-3.77v.4a1,1,0,0,0,.07.47,1.36,1.36,0,0,0,.31.39c.16.08.23.16.39.24a.94.94,0,0,0,.46.08,1.36,1.36,0,0,0,.85-.24,1.76,1.76,0,0,0,.54-.71H224v.08a2.33,2.33,0,0,1-.31.79,1.77,1.77,0,0,1-.54.55,2.67,2.67,0,0,1-.69.32C222.23,94.12,221.92,94.2,221.69,94.2ZM220.61,91h2.77v-.48a1.08,1.08,0,0,0-.15-.47.77.77,0,0,0-.39-.32,1.2,1.2,0,0,0-.53-.07,1.63,1.63,0,0,0-.62.07,1.49,1.49,0,0,0-.77.79A.76.76,0,0,0,220.61,91Z" transform="translate(-57.5 -83.48)"/><path class="cls-4" d="M225.62,96.09h-.31c-.08,0-.23-.08-.31-.08h0l.15-.79h.08c.08,0,.15.08.23.08h.23a.58.58,0,0,0,.39-.16,2,2,0,0,0,.31-.39l.46-.79L226,88.84h1v.08l.54,3.94,2-3.94h1l-3.31,6c-.07.15-.23.31-.31.47a1.46,1.46,0,0,1-.3.39c-.16.08-.23.24-.47.24A1.23,1.23,0,0,1,225.62,96.09Z" transform="translate(-57.5 -83.48)"/><path class="cls-4" d="M233.16,94.2a3.62,3.62,0,0,1-.92-.16,1.92,1.92,0,0,1-.7-.47,1.64,1.64,0,0,1-.38-.71A2.81,2.81,0,0,1,231,92a6,6,0,0,1,.16-1.18,4.19,4.19,0,0,1,.54-1,2.18,2.18,0,0,1,.92-.71,3.19,3.19,0,0,1,1.16-.23,1.84,1.84,0,0,1,1.54.55,2.08,2.08,0,0,1,.53,1.58,6.05,6.05,0,0,1-.15,1.18,4.12,4.12,0,0,1-.54,1,2.44,2.44,0,0,1-.84.71A3.16,3.16,0,0,1,233.16,94.2Zm.62-4.57a1.25,1.25,0,0,0-.77.23,2.19,2.19,0,0,0-.62.55,2.52,2.52,0,0,0-.38.79,3.45,3.45,0,0,0-.16.79,1.3,1.3,0,0,0,.31,1,1.34,1.34,0,0,0,1,.39,1.26,1.26,0,0,0,.77-.24,1.67,1.67,0,0,0,.54-.55,2.32,2.32,0,0,0,.38-.79A3.38,3.38,0,0,0,235,91a1.36,1.36,0,0,0-.08-.56l-.23-.47a.72.72,0,0,0-.38-.31Z" transform="translate(-57.5 -83.48)"/><path class="cls-4" d="M241.32,94h-.92V94l.61-3v-.32h0v-.39a.48.48,0,0,0-.23-.48,1.37,1.37,0,0,0-.61-.15,1.42,1.42,0,0,0-.62.15,1.44,1.44,0,0,0-.54.4,1.66,1.66,0,0,0-.31.47c-.07.16-.15.39-.23.55L238,94h-.92V94l1.07-5.12h.93l-.16.71a1.74,1.74,0,0,1,.7-.56,2.43,2.43,0,0,1,1-.23,1.53,1.53,0,0,1,1.08.31,1.38,1.38,0,0,1,.3,1v.47c0,.16-.07.4-.07.55Z" transform="translate(-57.5 -83.48)"/><path class="cls-4" d="M245.48,94.2a2.68,2.68,0,0,1-.85-.16,1.21,1.21,0,0,1-.61-.47,1.55,1.55,0,0,1-.39-.71,2.82,2.82,0,0,1-.15-.87,6,6,0,0,1,.15-1.18,4.19,4.19,0,0,1,.54-1A4.26,4.26,0,0,1,245,89a3.29,3.29,0,0,1,1.15-.31.92.92,0,0,1,.46.08,1,1,0,0,1,.46.16.71.71,0,0,1,.39.31,1.1,1.1,0,0,1,.23.32l.54-2.6h.92V87l-1.38,7h-.85l.15-.63a4.15,4.15,0,0,1-.69.55A1.59,1.59,0,0,1,245.48,94.2Zm.85-4.57a1.51,1.51,0,0,0-.85.23,2.34,2.34,0,0,0-.62.55,2.52,2.52,0,0,0-.38.79,3.33,3.33,0,0,0-.16.87,1.3,1.3,0,0,0,.31,1,1.14,1.14,0,0,0,.93.31,1.3,1.3,0,0,0,.77-.24,2.16,2.16,0,0,0,.61-.63,3.86,3.86,0,0,0,.39-.79,3.9,3.9,0,0,0,.15-.78,1.29,1.29,0,0,0-.31-1A.92.92,0,0,0,246.33,89.63Z" transform="translate(-57.5 -83.48)"/></g></svg>