<?xml version="1.0" encoding="UTF-8" standalone="no"?>
<svg
   xmlns:dc="http://purl.org/dc/elements/1.1/"
   xmlns:cc="http://creativecommons.org/ns#"
   xmlns:rdf="http://www.w3.org/1999/02/22-rdf-syntax-ns#"
   xmlns:svg="http://www.w3.org/2000/svg"
   xmlns="http://www.w3.org/2000/svg"
   xmlns:sodipodi="http://sodipodi.sourceforge.net/DTD/sodipodi-0.dtd"
   xmlns:inkscape="http://www.inkscape.org/namespaces/inkscape"
   width="360"
   height="360"
   viewBox="0 0 95.250003 95.250003"
   version="1.1"
   id="svg1939"
   inkscape:version="1.0.1 (0767f8302a, 2020-10-17)"
   sodipodi:docname="warranty.svg">
  <defs
     id="defs1933" />
  <sodipodi:namedview
     id="base"
     pagecolor="#ffffff"
     bordercolor="#666666"
     borderopacity="1.0"
     inkscape:pageopacity="0.0"
     inkscape:pageshadow="2"
     inkscape:zoom="1.3823446"
     inkscape:cx="176.54144"
     inkscape:cy="194.61112"
     inkscape:document-units="px"
     inkscape:current-layer="layer1"
     inkscape:document-rotation="0"
     showgrid="false"
     units="px"
     inkscape:window-width="1848"
     inkscape:window-height="1014"
     inkscape:window-x="72"
     inkscape:window-y="29"
     inkscape:window-maximized="1" />
  <metadata
     id="metadata1936">
    <rdf:RDF>
      <cc:Work
         rdf:about="">
        <dc:format>image/svg+xml</dc:format>
        <dc:type
           rdf:resource="http://purl.org/dc/dcmitype/StillImage" />
        <dc:title></dc:title>
      </cc:Work>
    </rdf:RDF>
  </metadata>
  <g
     inkscape:label="Layer 1"
     inkscape:groupmode="layer"
     id="layer1">
    <path
       sodipodi:type="star"
       style="fill:#ffcc00;stroke-width:0.264583"
       id="path1945"
       sodipodi:sides="45"
       sodipodi:cx="103.77864"
       sodipodi:cy="72.218689"
       sodipodi:r1="60.628239"
       sodipodi:r2="57.596828"
       sodipodi:arg1="0.64175547"
       sodipodi:arg2="0.71156864"
       inkscape:flatsided="false"
       inkscape:rounded="0"
       inkscape:randomized="0"
       d="m 152.34466,108.51091 -4.94573,1.31981 -0.57781,5.08608 -5.08128,0.61865 -1.28004,4.95617 -5.11792,-0.0945 -1.95735,4.72979 -5.05496,-0.8059 -2.59656,4.41135 -4.8936,-1.50158 -3.18523,4.00705 -4.637,-2.16802 -3.71191,3.52475 -4.29014,-2.79227 -4.16633,2.97385 -3.859786,-3.36216 -4.539663,2.36507 -3.3543,-3.86662 -4.824637,1.71025 -2.783526,-4.29582 -5.015706,1.02215 -2.158574,-4.64141 -5.109149,0.31415 -1.491608,-4.89665 -5.103149,-0.39996 -0.795609,-5.05659 -4.997821,-1.10629 -0.08413,-5.11811 -4.795216,-1.79109 0.628996,-5.080004 -4.499279,-2.441022 1.329875,-4.943028 -4.115767,-3.043444 2.004869,-4.70984 -3.652147,-3.58663 2.64084,-4.384981 -3.117442,-4.060005 3.225412,-3.974773 -2.52206,-4.454358 3.747203,-3.487199 -1.877588,-4.762012 4.19606,-2.931752 -1.196572,-4.976978 4.563245,-2.319242 -0.492265,-5.095073 4.841612,-1.66159 0.221622,-5.113998 5.025743,-0.971598 0.931197,-5.033385 5.112052,-0.262693 1.622646,-4.854804 5.098863,0.451323 2.282512,-4.581728 4.986429,1.156556 2.897952,-4.219475 4.77694,1.839277 3.456987,-3.775094 4.474474,2.486198 3.948731,-3.257235 4.08492,3.084729 4.36363,-2.675978 3.61585,3.623219 4.69358,-2.042637 3.07641,4.091188 4.93218,-1.369537 2.47709,4.479525 5.07479,-0.669781 1.82954,4.780674 5.11862,0.04301 1.1464,4.988773 5.06282,0.754967 0.44094,5.099771 4.90848,1.452227 -0.2731,5.111507 4.65859,2.121222 -0.98182,5.023755 4.31804,2.748929 -1.67145,4.83822 3.89345,3.323132 -2.32853,4.558515 3.39306,3.832654 -2.94029,4.190083 2.82664,4.267577 -3.49482,3.740097 2.20519,4.619437 -3.98133,3.217313 1.54084,4.881386 -4.39035,2.631908 0.84648,5.048321 -4.71391,1.99528 z"
       inkscape:transform-center-x="0.035713141"
       inkscape:transform-center-y="-0.022350115"
       transform="matrix(0.78618505,0,0,0.78607482,-33.928504,-9.1219446)" />
    <text
       xml:space="preserve"
       style="font-style:normal;font-weight:normal;font-size:62.2138px;line-height:1.25;font-family:sans-serif;fill:#bf1834;fill-opacity:1;stroke:none;stroke-width:1.55535;"
       x="4.8282027"
       y="52.897102"
       id="text1949"><tspan
         sodipodi:role="line"
         id="tspan1947"
         x="4.8282027"
         y="52.897102"
         style="font-style:normal;font-variant:normal;font-weight:900;font-stretch:normal;font-family:Roboto;-inkscape-font-specification:'Roboto Heavy';stroke-width:1.55535;fill:#bf1834;fill-opacity:1;">7</tspan></text>
    <text
       xml:space="preserve"
       style="font-style:normal;font-weight:normal;font-size:30.3945px;line-height:1.25;font-family:sans-serif;fill:#bf1834;fill-opacity:1;stroke:none;stroke-width:0.759864;"
       x="33.142792"
       y="49.915543"
       id="text1953"><tspan
         sodipodi:role="line"
         id="tspan1951"
         x="33.142792"
         y="49.915543"
         style="font-style:normal;font-variant:normal;font-weight:900;font-stretch:normal;font-family:Roboto;-inkscape-font-specification:'Roboto Heavy';stroke-width:0.759864;fill:#bf1834;fill-opacity:1;">year</tspan></text>
    <text
       xml:space="preserve"
       style="font-style:normal;font-weight:normal;font-size:23.3478px;line-height:1.25;font-family:sans-serif;fill:#bf1834;fill-opacity:1;stroke:none;stroke-width:0.583697"
       x="-0.23940617"
       y="72.690506"
       id="text1957"><tspan
         sodipodi:role="line"
         id="tspan1955"
         x="-0.23940617"
         y="72.690506"
         style="font-style:normal;font-variant:normal;font-weight:900;font-stretch:normal;font-family:Roboto;-inkscape-font-specification:'Roboto Heavy';fill:#bf1834;fill-opacity:1;stroke-width:0.583697">Warranty</tspan></text>
    <text
       xml:space="preserve"
       style="font-style:normal;font-weight:normal;font-size:8.17017px;line-height:1.25;font-family:sans-serif;fill:#bf1834;fill-opacity:1;stroke:none;stroke-width:0.204255;"
       x="60.099808"
       y="31.556587"
       id="text1961"><tspan
         sodipodi:role="line"
         id="tspan1959"
         x="60.099808"
         y="31.556587"
         style="font-style:normal;font-variant:normal;font-weight:900;font-stretch:normal;font-family:Roboto;-inkscape-font-specification:'Roboto Heavy';stroke-width:0.204255;fill:#bf1834;fill-opacity:1;">Limited</tspan></text>
  </g>
</svg>
